<?xml version="1.0" encoding="UTF-8" standalone="no"?>
<!DOCTYPE svg PUBLIC "-//W3C//DTD SVG 1.1//EN"
 "http://www.w3.org/Graphics/SVG/1.1/DTD/svg11.dtd">
<!-- Generated by graphviz version 4.0.0 (0)
 -->
<!-- Title: curriculum&#45;graph&#45;compsci&#45;ufsc Pages: 1 -->
<svg width="1116pt" height="640pt"
 viewBox="0.00 0.00 1116.00 640.00" xmlns="http://www.w3.org/2000/svg" xmlns:xlink="http://www.w3.org/1999/xlink">
<g id="graph0" class="graph" transform="scale(1 1) rotate(0) translate(4 636)">
<title>curriculum&#45;graph&#45;compsci&#45;ufsc</title>
<polygon fill="transparent" stroke="transparent" points="-4,4 -4,-636 1112,-636 1112,4 -4,4"/>
<g id="clust1" class="cluster">
<title>cluster_everything</title>
<polygon fill="transparent" stroke="transparent" points="8,-8 8,-624 1100,-624 1100,-8 8,-8"/>
</g>
<g id="clust2" class="cluster">
<title>cluster_header</title>
<polygon fill="transparent" stroke="transparent" points="16,-564 16,-616 1092,-616 1092,-564 16,-564"/>
</g>
<g id="clust3" class="cluster">
<title>cluster_1</title>
<polygon fill="transparent" stroke="transparent" points="16,-132 16,-466 133,-466 133,-132 16,-132"/>
</g>
<g id="clust4" class="cluster">
<title>cluster_2</title>
<polygon fill="transparent" stroke="transparent" points="153,-188 153,-522 270,-522 270,-188 153,-188"/>
</g>
<g id="clust5" class="cluster">
<title>cluster_3</title>
<polygon fill="transparent" stroke="transparent" points="290,-144 290,-422 407,-422 407,-144 290,-144"/>
</g>
<g id="clust6" class="cluster">
<title>cluster_4</title>
<polygon fill="transparent" stroke="transparent" points="427,-16 427,-350 544,-350 544,-16 427,-16"/>
</g>
<g id="clust7" class="cluster">
<title>cluster_5</title>
<polygon fill="transparent" stroke="transparent" points="564,-148 564,-482 681,-482 681,-148 564,-148"/>
</g>
<g id="clust8" class="cluster">
<title>cluster_6</title>
<polygon fill="transparent" stroke="transparent" points="701,-50 701,-440 818,-440 818,-50 701,-50"/>
</g>
<g id="clust9" class="cluster">
<title>cluster_7</title>
<polygon fill="transparent" stroke="transparent" points="838,-190 838,-468 955,-468 955,-190 838,-190"/>
</g>
<g id="clust10" class="cluster">
<title>cluster_8</title>
<polygon fill="transparent" stroke="transparent" points="975,-16 975,-491 1092,-491 1092,-16 975,-16"/>
</g>
<!-- Fase 1 -->
<g id="node1" class="node">
<title>Fase 1</title>
<polygon fill="lightgrey" stroke="black" points="125,-608 24,-608 24,-572 125,-572 125,-608"/>
<text text-anchor="middle" x="74.5" y="-586.3" font-family="Arial" font-size="14.00">Fase 1</text>
</g>
<!-- Fase 2 -->
<g id="node2" class="node">
<title>Fase 2</title>
<polygon fill="lightgrey" stroke="black" points="262,-608 161,-608 161,-572 262,-572 262,-608"/>
<text text-anchor="middle" x="211.5" y="-586.3" font-family="Arial" font-size="14.00">Fase 2</text>
</g>
<!-- Fase 1&#45;&gt;Fase 2 -->
<!-- Fase 3 -->
<g id="node3" class="node">
<title>Fase 3</title>
<polygon fill="lightgrey" stroke="black" points="399,-608 298,-608 298,-572 399,-572 399,-608"/>
<text text-anchor="middle" x="348.5" y="-586.3" font-family="Arial" font-size="14.00">Fase 3</text>
</g>
<!-- Fase 2&#45;&gt;Fase 3 -->
<!-- Fase 4 -->
<g id="node4" class="node">
<title>Fase 4</title>
<polygon fill="lightgrey" stroke="black" points="536,-608 435,-608 435,-572 536,-572 536,-608"/>
<text text-anchor="middle" x="485.5" y="-586.3" font-family="Arial" font-size="14.00">Fase 4</text>
</g>
<!-- Fase 3&#45;&gt;Fase 4 -->
<!-- Fase 5 -->
<g id="node5" class="node">
<title>Fase 5</title>
<polygon fill="lightgrey" stroke="black" points="673,-608 572,-608 572,-572 673,-572 673,-608"/>
<text text-anchor="middle" x="622.5" y="-586.3" font-family="Arial" font-size="14.00">Fase 5</text>
</g>
<!-- Fase 4&#45;&gt;Fase 5 -->
<!-- Fase 6 -->
<g id="node6" class="node">
<title>Fase 6</title>
<polygon fill="lightgrey" stroke="black" points="810,-608 709,-608 709,-572 810,-572 810,-608"/>
<text text-anchor="middle" x="759.5" y="-586.3" font-family="Arial" font-size="14.00">Fase 6</text>
</g>
<!-- Fase 5&#45;&gt;Fase 6 -->
<!-- Fase 7 -->
<g id="node7" class="node">
<title>Fase 7</title>
<polygon fill="lightgrey" stroke="black" points="947,-608 846,-608 846,-572 947,-572 947,-608"/>
<text text-anchor="middle" x="896.5" y="-586.3" font-family="Arial" font-size="14.00">Fase 7</text>
</g>
<!-- Fase 6&#45;&gt;Fase 7 -->
<!-- Fase 8+ -->
<g id="node8" class="node">
<title>Fase 8+</title>
<polygon fill="lightgrey" stroke="black" points="1084,-608 983,-608 983,-572 1084,-572 1084,-608"/>
<text text-anchor="middle" x="1033.5" y="-586.3" font-family="Arial" font-size="14.00">Fase 8+</text>
</g>
<!-- Fase 7&#45;&gt;Fase 8+ -->
<!-- eel5105 -->
<g id="node9" class="node">
<title>eel5105</title>
<polygon fill="#80b1d3" stroke="#80b1d3" points="125,-290 24,-290 24,-252 125,-252 125,-290"/>
<text text-anchor="middle" x="74.5" y="-274.8" font-family="Arial" font-size="14.00">EEL5105</text>
<text text-anchor="middle" x="74.5" y="-259.8" font-family="Arial" font-size="14.00">Circuitos</text>
</g>
<!-- ine5406 -->
<g id="node16" class="node">
<title>ine5406</title>
<polygon fill="#80b1d3" stroke="#80b1d3" points="262,-290 161,-290 161,-252 262,-252 262,-290"/>
<text text-anchor="middle" x="211.5" y="-274.8" font-family="Arial" font-size="14.00">INE5406</text>
<text text-anchor="middle" x="211.5" y="-259.8" font-family="Arial" font-size="14.00">Sist. Digitais</text>
</g>
<!-- eel5105&#45;&gt;ine5406 -->
<g id="edge8" class="edge">
<title>eel5105&#45;&gt;ine5406</title>
<path fill="none" stroke="#80b1d3" stroke-width="2" d="M125.12,-271C125.12,-271 158.13,-271 158.13,-271"/>
<polygon fill="#80b1d3" stroke="#80b1d3" stroke-width="2" points="160.13,-268.5 160.13,-273.5 159.13,-273.5 159.13,-268.5 160.13,-268.5"/>
<polyline fill="none" stroke="#80b1d3" stroke-width="2" points="160.63,-271 158.13,-271 "/>
</g>
<!-- ine5401 -->
<g id="node10" class="node">
<title>ine5401</title>
<polygon fill="#bebada" stroke="#bebada" points="125,-402 24,-402 24,-364 125,-364 125,-402"/>
<text text-anchor="middle" x="74.5" y="-386.8" font-family="Arial" font-size="14.00">INE5401</text>
<text text-anchor="middle" x="74.5" y="-371.8" font-family="Arial" font-size="14.00">Introdução</text>
</g>
<!-- ine5402 -->
<g id="node11" class="node">
<title>ine5402</title>
<polygon fill="#fb8072" stroke="#fb8072" points="125,-234 24,-234 24,-196 125,-196 125,-234"/>
<text text-anchor="middle" x="74.5" y="-218.8" font-family="Arial" font-size="14.00">INE5402</text>
<text text-anchor="middle" x="74.5" y="-203.8" font-family="Arial" font-size="14.00">POO I</text>
</g>
<!-- ine5404 -->
<g id="node15" class="node">
<title>ine5404</title>
<polygon fill="#fb8072" stroke="#fb8072" points="262,-234 161,-234 161,-196 262,-196 262,-234"/>
<text text-anchor="middle" x="211.5" y="-218.8" font-family="Arial" font-size="14.00">INE5404</text>
<text text-anchor="middle" x="211.5" y="-203.8" font-family="Arial" font-size="14.00">POO II</text>
</g>
<!-- ine5402&#45;&gt;ine5404 -->
<g id="edge10" class="edge">
<title>ine5402&#45;&gt;ine5404</title>
<path fill="none" stroke="#fb8072" stroke-width="2" d="M125.12,-215C125.12,-215 158.13,-215 158.13,-215"/>
<polygon fill="#fb8072" stroke="#fb8072" stroke-width="2" points="160.13,-212.5 160.13,-217.5 159.13,-217.5 159.13,-212.5 160.13,-212.5"/>
<polyline fill="none" stroke="#fb8072" stroke-width="2" points="160.63,-215 158.13,-215 "/>
</g>
<!-- ine5403 -->
<g id="node12" class="node">
<title>ine5403</title>
<polygon fill="#8dd3c7" stroke="#8dd3c7" points="125,-178 24,-178 24,-140 125,-140 125,-178"/>
<text text-anchor="middle" x="74.5" y="-162.8" font-family="Arial" font-size="14.00">INE5403</text>
<text text-anchor="middle" x="74.5" y="-147.8" font-family="Arial" font-size="14.00">Mat. Discreta</text>
</g>
<!-- ine5413 -->
<g id="node27" class="node">
<title>ine5413</title>
<polygon fill="#8dd3c7" stroke="#8dd3c7" points="536,-118 435,-118 435,-80 536,-80 536,-118"/>
<text text-anchor="middle" x="485.5" y="-102.8" font-family="Arial" font-size="14.00">INE5413</text>
<text text-anchor="middle" x="485.5" y="-87.8" font-family="Arial" font-size="14.00">Grafos</text>
</g>
<!-- ine5403&#45;&gt;ine5413 -->
<g id="edge11" class="edge">
<title>ine5403&#45;&gt;ine5413</title>
<path fill="none" stroke="#8dd3c7" stroke-width="2" d="M58,-139.81C58,-120.22 58,-92.67 58,-92.67 58,-92.67 432.28,-92.67 432.28,-92.67"/>
<polygon fill="#8dd3c7" stroke="#8dd3c7" stroke-width="2" points="434.28,-90.17 434.28,-95.17 433.28,-95.17 433.28,-90.17 434.28,-90.17"/>
<polyline fill="none" stroke="#8dd3c7" stroke-width="2" points="434.78,-92.67 432.28,-92.67 "/>
</g>
<!-- ine5415 -->
<g id="node29" class="node">
<title>ine5415</title>
<polygon fill="#8dd3c7" stroke="#8dd3c7" points="536,-286 435,-286 435,-248 536,-248 536,-286"/>
<text text-anchor="middle" x="485.5" y="-270.8" font-family="Arial" font-size="14.00">INE5415</text>
<text text-anchor="middle" x="485.5" y="-255.8" font-family="Arial" font-size="14.00">TC</text>
</g>
<!-- ine5403&#45;&gt;ine5415 -->
<g id="edge12" class="edge">
<title>ine5403&#45;&gt;ine5415</title>
<path fill="none" stroke="#8dd3c7" stroke-width="2" d="M125.03,-165C185.88,-165 280,-165 280,-165 280,-165 280,-260 280,-260 280,-260 432.47,-260 432.47,-260"/>
<polygon fill="#8dd3c7" stroke="#8dd3c7" stroke-width="2" points="434.47,-257.5 434.47,-262.5 433.47,-262.5 433.47,-257.5 434.47,-257.5"/>
<polyline fill="none" stroke="#8dd3c7" stroke-width="2" points="434.97,-260 432.47,-260 "/>
</g>
<!-- ine5429 -->
<g id="node46" class="node">
<title>ine5429</title>
<polygon fill="#8dd3c7" stroke="#8dd3c7" points="947,-404 846,-404 846,-366 947,-366 947,-404"/>
<text text-anchor="middle" x="896.5" y="-388.8" font-family="Arial" font-size="14.00">INE5429</text>
<text text-anchor="middle" x="896.5" y="-373.8" font-family="Arial" font-size="14.00">Segurança</text>
</g>
<!-- ine5403&#45;&gt;ine5429 -->
<g id="edge13" class="edge">
<title>ine5403&#45;&gt;ine5429</title>
<path fill="none" stroke="#8dd3c7" stroke-width="2" d="M92,-139.65C92,-132.91 92,-127 92,-127 92,-127 682,-127 682,-127 682,-127 682,-387 682,-387 682,-387 843.44,-387 843.44,-387"/>
<polygon fill="#8dd3c7" stroke="#8dd3c7" stroke-width="2" points="845.44,-384.5 845.44,-389.5 844.44,-389.5 844.44,-384.5 845.44,-384.5"/>
<polyline fill="none" stroke="#8dd3c7" stroke-width="2" points="845.94,-387 843.44,-387 "/>
</g>
<!-- mtm3100 -->
<g id="node13" class="node">
<title>mtm3100</title>
<polygon fill="#fdb462" stroke="#fdb462" points="125,-458 24,-458 24,-420 125,-420 125,-458"/>
<text text-anchor="middle" x="74.5" y="-442.8" font-family="Arial" font-size="14.00">MTM3100</text>
<text text-anchor="middle" x="74.5" y="-427.8" font-family="Arial" font-size="14.00">Pré&#45;Cálculo</text>
</g>
<!-- mtm3110 -->
<g id="node14" class="node">
<title>mtm3110</title>
<polygon fill="#fdb462" stroke="#fdb462" points="125,-346 24,-346 24,-308 125,-308 125,-346"/>
<text text-anchor="middle" x="74.5" y="-330.8" font-family="Arial" font-size="14.00">MTM3110</text>
<text text-anchor="middle" x="74.5" y="-315.8" font-family="Arial" font-size="14.00">Cálculo 1</text>
</g>
<!-- mtm3100&#45;&gt;mtm3110 -->
<g id="edge46" class="edge">
<title>mtm3100&#45;&gt;mtm3110</title>
<path fill="none" stroke="#fdb462" stroke-width="2" d="M125.22,-439C130.51,-439 134,-439 134,-439 134,-439 134,-336.5 134,-336.5 134,-336.5 127.72,-336.5 127.72,-336.5"/>
<polygon fill="#fdb462" stroke="#fdb462" stroke-width="2" points="125.72,-339 125.72,-334 126.72,-334 126.72,-339 125.72,-339"/>
<polyline fill="none" stroke="#fdb462" stroke-width="2" points="125.22,-336.5 127.72,-336.5 "/>
</g>
<!-- mtm3120 -->
<g id="node19" class="node">
<title>mtm3120</title>
<polygon fill="#fdb462" stroke="#fdb462" points="262,-402 161,-402 161,-364 262,-364 262,-402"/>
<text text-anchor="middle" x="211.5" y="-386.8" font-family="Arial" font-size="14.00">MTM3120</text>
<text text-anchor="middle" x="211.5" y="-371.8" font-family="Arial" font-size="14.00">Cálculo 2</text>
</g>
<!-- mtm3110&#45;&gt;mtm3120 -->
<g id="edge48" class="edge">
<title>mtm3110&#45;&gt;mtm3120</title>
<path fill="none" stroke="#fdb462" stroke-width="2" d="M125.33,-317.5C139.94,-317.5 152,-317.5 152,-317.5 152,-317.5 152,-383 152,-383 152,-383 158.28,-383 158.28,-383"/>
<polygon fill="#fdb462" stroke="#fdb462" stroke-width="2" points="160.28,-380.5 160.28,-385.5 159.28,-385.5 159.28,-380.5 160.28,-380.5"/>
<polyline fill="none" stroke="#fdb462" stroke-width="2" points="160.78,-383 158.28,-383 "/>
</g>
<!-- ine5405 -->
<g id="node32" class="node">
<title>ine5405</title>
<polygon fill="#fdb462" stroke="#fdb462" points="673,-474 572,-474 572,-436 673,-436 673,-474"/>
<text text-anchor="middle" x="622.5" y="-458.8" font-family="Arial" font-size="14.00">INE5405</text>
<text text-anchor="middle" x="622.5" y="-443.8" font-family="Arial" font-size="14.00">Prob. e Est.</text>
</g>
<!-- mtm3110&#45;&gt;ine5405 -->
<g id="edge47" class="edge">
<title>mtm3110&#45;&gt;ine5405</title>
<path fill="none" stroke="#fdb462" stroke-width="2" d="M125,-327C135.27,-327 143,-327 143,-327 143,-327 143,-466 143,-466 143,-466 569.14,-466 569.14,-466"/>
<polygon fill="#fdb462" stroke="#fdb462" stroke-width="2" points="571.14,-463.5 571.14,-468.5 570.14,-468.5 570.14,-463.5 571.14,-463.5"/>
<polyline fill="none" stroke="#fdb462" stroke-width="2" points="571.64,-466 569.14,-466 "/>
</g>
<!-- ine5408 -->
<g id="node22" class="node">
<title>ine5408</title>
<polygon fill="#fb8072" stroke="#fb8072" points="399,-190 298,-190 298,-152 399,-152 399,-190"/>
<text text-anchor="middle" x="348.5" y="-174.8" font-family="Arial" font-size="14.00">INE5408</text>
<text text-anchor="middle" x="348.5" y="-159.8" font-family="Arial" font-size="14.00">ED</text>
</g>
<!-- ine5404&#45;&gt;ine5408 -->
<g id="edge14" class="edge">
<title>ine5404&#45;&gt;ine5408</title>
<path fill="none" stroke="#fb8072" stroke-width="2" d="M229,-195.9C229,-189.52 229,-184 229,-184 229,-184 295.32,-184 295.32,-184"/>
<polygon fill="#fb8072" stroke="#fb8072" stroke-width="2" points="297.32,-181.5 297.32,-186.5 296.32,-186.5 296.32,-181.5 297.32,-181.5"/>
<polyline fill="none" stroke="#fb8072" stroke-width="2" points="297.82,-184 295.32,-184 "/>
</g>
<!-- ine5410 -->
<g id="node23" class="node">
<title>ine5410</title>
<polygon fill="#80b1d3" stroke="#80b1d3" points="399,-246 298,-246 298,-208 399,-208 399,-246"/>
<text text-anchor="middle" x="348.5" y="-230.8" font-family="Arial" font-size="14.00">INE5410</text>
<text text-anchor="middle" x="348.5" y="-215.8" font-family="Arial" font-size="14.00">Prog. Conc.</text>
</g>
<!-- ine5404&#45;&gt;ine5410 -->
<g id="edge15" class="edge">
<title>ine5404&#45;&gt;ine5410</title>
<path fill="none" stroke="#fb8072" stroke-width="2" d="M262.12,-221C262.12,-221 295.13,-221 295.13,-221"/>
<polygon fill="#fb8072" stroke="#fb8072" stroke-width="2" points="297.13,-218.5 297.13,-223.5 296.13,-223.5 296.13,-218.5 297.13,-218.5"/>
<polyline fill="none" stroke="#fb8072" stroke-width="2" points="297.63,-221 295.13,-221 "/>
</g>
<!-- ine5414 -->
<g id="node28" class="node">
<title>ine5414</title>
<polygon fill="#bebada" stroke="#bebada" points="536,-62 435,-62 435,-24 536,-24 536,-62"/>
<text text-anchor="middle" x="485.5" y="-46.8" font-family="Arial" font-size="14.00">INE5414</text>
<text text-anchor="middle" x="485.5" y="-31.8" font-family="Arial" font-size="14.00">Redes I</text>
</g>
<!-- ine5404&#45;&gt;ine5414 -->
<g id="edge16" class="edge">
<title>ine5404&#45;&gt;ine5414</title>
<path fill="none" stroke="#fb8072" stroke-width="2" d="M195,-195.94C195,-151.15 195,-43 195,-43 195,-43 432.4,-43 432.4,-43"/>
<polygon fill="#fb8072" stroke="#fb8072" stroke-width="2" points="434.4,-40.5 434.4,-45.5 433.4,-45.5 433.4,-40.5 434.4,-40.5"/>
<polyline fill="none" stroke="#fb8072" stroke-width="2" points="434.9,-43 432.4,-43 "/>
</g>
<!-- ine5411 -->
<g id="node24" class="node">
<title>ine5411</title>
<polygon fill="#80b1d3" stroke="#80b1d3" points="399,-302 298,-302 298,-264 399,-264 399,-302"/>
<text text-anchor="middle" x="348.5" y="-286.8" font-family="Arial" font-size="14.00">INE5411</text>
<text text-anchor="middle" x="348.5" y="-271.8" font-family="Arial" font-size="14.00">Org. Comp.</text>
</g>
<!-- ine5406&#45;&gt;ine5411 -->
<g id="edge19" class="edge">
<title>ine5406&#45;&gt;ine5411</title>
<path fill="none" stroke="#80b1d3" stroke-width="2" d="M262.12,-277C262.12,-277 295.13,-277 295.13,-277"/>
<polygon fill="#80b1d3" stroke="#80b1d3" stroke-width="2" points="297.13,-274.5 297.13,-279.5 296.13,-279.5 296.13,-274.5 297.13,-274.5"/>
<polyline fill="none" stroke="#80b1d3" stroke-width="2" points="297.63,-277 295.13,-277 "/>
</g>
<!-- ine5407 -->
<g id="node17" class="node">
<title>ine5407</title>
<polygon fill="#bebada" stroke="#bebada" points="262,-514 161,-514 161,-476 262,-476 262,-514"/>
<text text-anchor="middle" x="211.5" y="-498.8" font-family="Arial" font-size="14.00">INE5407</text>
<text text-anchor="middle" x="211.5" y="-483.8" font-family="Arial" font-size="14.00">CTS</text>
</g>
<!-- ine5428 -->
<g id="node45" class="node">
<title>ine5428</title>
<polygon fill="#bebada" stroke="#bebada" points="947,-460 846,-460 846,-422 947,-422 947,-460"/>
<text text-anchor="middle" x="896.5" y="-444.8" font-family="Arial" font-size="14.00">INE5428</text>
<text text-anchor="middle" x="896.5" y="-429.8" font-family="Arial" font-size="14.00">Inf. e Soc.</text>
</g>
<!-- ine5407&#45;&gt;ine5428 -->
<g id="edge20" class="edge">
<title>ine5407&#45;&gt;ine5428</title>
<path fill="none" stroke="#bebada" stroke-width="2" d="M262.18,-479.5C420.77,-479.5 897,-479.5 897,-479.5 897,-479.5 897,-462.75 897,-462.75"/>
<polygon fill="#bebada" stroke="#bebada" stroke-width="2" points="894.5,-460.75 899.5,-460.75 899.5,-461.75 894.5,-461.75 894.5,-460.75"/>
<polyline fill="none" stroke="#bebada" stroke-width="2" points="897,-460.25 897,-462.75 "/>
</g>
<!-- mtm3111 -->
<g id="node18" class="node">
<title>mtm3111</title>
<polygon fill="#fdb462" stroke="#fdb462" points="262,-346 161,-346 161,-308 262,-308 262,-346"/>
<text text-anchor="middle" x="211.5" y="-330.8" font-family="Arial" font-size="14.00">MTM3111</text>
<text text-anchor="middle" x="211.5" y="-315.8" font-family="Arial" font-size="14.00">GA</text>
</g>
<!-- ine5202 -->
<g id="node21" class="node">
<title>ine5202</title>
<polygon fill="#fdb462" stroke="#fdb462" points="399,-358 298,-358 298,-320 399,-320 399,-358"/>
<text text-anchor="middle" x="348.5" y="-342.8" font-family="Arial" font-size="14.00">INE5202</text>
<text text-anchor="middle" x="348.5" y="-327.8" font-family="Arial" font-size="14.00">Calc. Num.</text>
</g>
<!-- mtm3111&#45;&gt;ine5202 -->
<g id="edge49" class="edge">
<title>mtm3111&#45;&gt;ine5202</title>
<path fill="none" stroke="#fdb462" stroke-width="2" d="M262.12,-333C262.12,-333 295.13,-333 295.13,-333"/>
<polygon fill="#fdb462" stroke="#fdb462" stroke-width="2" points="297.13,-330.5 297.13,-335.5 296.13,-335.5 296.13,-330.5 297.13,-330.5"/>
<polyline fill="none" stroke="#fdb462" stroke-width="2" points="297.63,-333 295.13,-333 "/>
</g>
<!-- mtm3120&#45;&gt;ine5202 -->
<g id="edge50" class="edge">
<title>mtm3120&#45;&gt;ine5202</title>
<path fill="none" stroke="#fdb462" stroke-width="2" d="M262.25,-371.2C295.19,-371.2 332,-371.2 332,-371.2 332,-371.2 332,-360.6 332,-360.6"/>
<polygon fill="#fdb462" stroke="#fdb462" stroke-width="2" points="329.5,-358.6 334.5,-358.6 334.5,-359.6 329.5,-359.6 329.5,-358.6"/>
<polyline fill="none" stroke="#fdb462" stroke-width="2" points="332,-358.1 332,-360.6 "/>
</g>
<!-- mtm3131 -->
<g id="node25" class="node">
<title>mtm3131</title>
<polygon fill="#fdb462" stroke="#fdb462" points="399,-414 298,-414 298,-376 399,-376 399,-414"/>
<text text-anchor="middle" x="348.5" y="-398.8" font-family="Arial" font-size="14.00">MTM3131</text>
<text text-anchor="middle" x="348.5" y="-383.8" font-family="Arial" font-size="14.00">Eq. Dif. Ord.</text>
</g>
<!-- mtm3120&#45;&gt;mtm3131 -->
<g id="edge52" class="edge">
<title>mtm3120&#45;&gt;mtm3131</title>
<path fill="none" stroke="#fdb462" stroke-width="2" d="M262.12,-389C262.12,-389 295.13,-389 295.13,-389"/>
<polygon fill="#fdb462" stroke="#fdb462" stroke-width="2" points="297.13,-386.5 297.13,-391.5 296.13,-391.5 296.13,-386.5 297.13,-386.5"/>
<polyline fill="none" stroke="#fdb462" stroke-width="2" points="297.63,-389 295.13,-389 "/>
</g>
<!-- ine5420 -->
<g id="node35" class="node">
<title>ine5420</title>
<polygon fill="#fdb462" stroke="#fdb462" points="673,-418 572,-418 572,-380 673,-380 673,-418"/>
<text text-anchor="middle" x="622.5" y="-402.8" font-family="Arial" font-size="14.00">INE5420</text>
<text text-anchor="middle" x="622.5" y="-387.8" font-family="Arial" font-size="14.00">CG</text>
</g>
<!-- mtm3120&#45;&gt;ine5420 -->
<g id="edge51" class="edge">
<title>mtm3120&#45;&gt;ine5420</title>
<path fill="none" stroke="#fdb462" stroke-width="2" d="M262.37,-373.6C372.47,-373.6 623,-373.6 623,-373.6 623,-373.6 623,-377.25 623,-377.25"/>
<polygon fill="#fdb462" stroke="#fdb462" stroke-width="2" points="625.5,-379.25 620.5,-379.25 620.5,-378.25 625.5,-378.25 625.5,-379.25"/>
<polyline fill="none" stroke="#fdb462" stroke-width="2" points="623,-379.75 623,-377.25 "/>
</g>
<!-- mtm3121 -->
<g id="node20" class="node">
<title>mtm3121</title>
<polygon fill="#fdb462" stroke="#fdb462" points="262,-458 161,-458 161,-420 262,-420 262,-458"/>
<text text-anchor="middle" x="211.5" y="-442.8" font-family="Arial" font-size="14.00">MTM3121</text>
<text text-anchor="middle" x="211.5" y="-427.8" font-family="Arial" font-size="14.00">AL</text>
</g>
<!-- mtm3121&#45;&gt;mtm3131 -->
<g id="edge54" class="edge">
<title>mtm3121&#45;&gt;mtm3131</title>
<path fill="none" stroke="#fdb462" stroke-width="2" d="M262.31,-426C301.48,-426 349,-426 349,-426 349,-426 349,-416.6 349,-416.6"/>
<polygon fill="#fdb462" stroke="#fdb462" stroke-width="2" points="346.5,-414.6 351.5,-414.6 351.5,-415.6 346.5,-415.6 346.5,-414.6"/>
<polyline fill="none" stroke="#fdb462" stroke-width="2" points="349,-414.1 349,-416.6 "/>
</g>
<!-- mtm3121&#45;&gt;ine5420 -->
<g id="edge53" class="edge">
<title>mtm3121&#45;&gt;ine5420</title>
<path fill="none" stroke="#fdb462" stroke-width="2" d="M262.37,-429C372.47,-429 623,-429 623,-429 623,-429 623,-420.67 623,-420.67"/>
<polygon fill="#fdb462" stroke="#fdb462" stroke-width="2" points="620.5,-418.67 625.5,-418.67 625.5,-419.67 620.5,-419.67 620.5,-418.67"/>
<polyline fill="none" stroke="#fdb462" stroke-width="2" points="623,-418.17 623,-420.67 "/>
</g>
<!-- ine5425 -->
<g id="node40" class="node">
<title>ine5425</title>
<polygon fill="#fdb462" stroke="#fdb462" points="810,-376 709,-376 709,-338 810,-338 810,-376"/>
<text text-anchor="middle" x="759.5" y="-360.8" font-family="Arial" font-size="14.00">INE5425</text>
<text text-anchor="middle" x="759.5" y="-345.8" font-family="Arial" font-size="14.00">Mod. e Sim.</text>
</g>
<!-- ine5202&#45;&gt;ine5425 -->
<g id="edge9" class="edge">
<title>ine5202&#45;&gt;ine5425</title>
<path fill="none" stroke="#fdb462" stroke-width="2" d="M366,-358.03C366,-362.71 366,-366.4 366,-366.4 366,-366.4 706.36,-366.4 706.36,-366.4"/>
<polygon fill="#fdb462" stroke="#fdb462" stroke-width="2" points="708.36,-363.9 708.36,-368.9 707.36,-368.9 707.36,-363.9 708.36,-363.9"/>
<polyline fill="none" stroke="#fdb462" stroke-width="2" points="708.86,-366.4 706.36,-366.4 "/>
</g>
<!-- ine5408&#45;&gt;ine5413 -->
<g id="edge21" class="edge">
<title>ine5408&#45;&gt;ine5413</title>
<path fill="none" stroke="#fb8072" stroke-width="2" d="M349,-151.65C349,-132.28 349,-105.33 349,-105.33 349,-105.33 432.17,-105.33 432.17,-105.33"/>
<polygon fill="#fb8072" stroke="#fb8072" stroke-width="2" points="434.17,-102.83 434.17,-107.83 433.17,-107.83 433.17,-102.83 434.17,-102.83"/>
<polyline fill="none" stroke="#fb8072" stroke-width="2" points="434.67,-105.33 432.17,-105.33 "/>
</g>
<!-- ine5408&#45;&gt;ine5415 -->
<g id="edge22" class="edge">
<title>ine5408&#45;&gt;ine5415</title>
<path fill="none" stroke="#fb8072" stroke-width="2" d="M399.3,-177.2C414.88,-177.2 428,-177.2 428,-177.2 428,-177.2 428,-256 428,-256 428,-256 432.1,-256 432.1,-256"/>
<polygon fill="#fb8072" stroke="#fb8072" stroke-width="2" points="434.1,-253.5 434.1,-258.5 433.1,-258.5 433.1,-253.5 434.1,-253.5"/>
<polyline fill="none" stroke="#fb8072" stroke-width="2" points="434.6,-256 432.1,-256 "/>
</g>
<!-- ine5416 -->
<g id="node30" class="node">
<title>ine5416</title>
<polygon fill="#8dd3c7" stroke="#8dd3c7" points="536,-174 435,-174 435,-136 536,-136 536,-174"/>
<text text-anchor="middle" x="485.5" y="-158.8" font-family="Arial" font-size="14.00">INE5416</text>
<text text-anchor="middle" x="485.5" y="-143.8" font-family="Arial" font-size="14.00">Paradigmas</text>
</g>
<!-- ine5408&#45;&gt;ine5416 -->
<g id="edge23" class="edge">
<title>ine5408&#45;&gt;ine5416</title>
<path fill="none" stroke="#fb8072" stroke-width="2" d="M399.12,-163C399.12,-163 432.13,-163 432.13,-163"/>
<polygon fill="#fb8072" stroke="#fb8072" stroke-width="2" points="434.13,-160.5 434.13,-165.5 433.13,-165.5 433.13,-160.5 434.13,-160.5"/>
<polyline fill="none" stroke="#fb8072" stroke-width="2" points="434.63,-163 432.13,-163 "/>
</g>
<!-- ine5417 -->
<g id="node31" class="node">
<title>ine5417</title>
<polygon fill="#fb8072" stroke="#fb8072" points="536,-230 435,-230 435,-192 536,-192 536,-230"/>
<text text-anchor="middle" x="485.5" y="-214.8" font-family="Arial" font-size="14.00">INE5417</text>
<text text-anchor="middle" x="485.5" y="-199.8" font-family="Arial" font-size="14.00">ES I</text>
</g>
<!-- ine5408&#45;&gt;ine5417 -->
<g id="edge24" class="edge">
<title>ine5408&#45;&gt;ine5417</title>
<path fill="none" stroke="#fb8072" stroke-width="2" d="M399.31,-186.8C438.48,-186.8 486,-186.8 486,-186.8 486,-186.8 486,-189.43 486,-189.43"/>
<polygon fill="#fb8072" stroke="#fb8072" stroke-width="2" points="488.5,-191.43 483.5,-191.43 483.5,-190.43 488.5,-190.43 488.5,-191.43"/>
<polyline fill="none" stroke="#fb8072" stroke-width="2" points="486,-191.93 486,-189.43 "/>
</g>
<!-- ine5408&#45;&gt;ine5420 -->
<g id="edge25" class="edge">
<title>ine5408&#45;&gt;ine5420</title>
<path fill="none" stroke="#fb8072" stroke-width="2" d="M399.14,-180.4C407.76,-180.4 414,-180.4 414,-180.4 414,-180.4 414,-397 414,-397 414,-397 569.26,-397 569.26,-397"/>
<polygon fill="#fb8072" stroke="#fb8072" stroke-width="2" points="571.26,-394.5 571.26,-399.5 570.26,-399.5 570.26,-394.5 571.26,-394.5"/>
<polyline fill="none" stroke="#fb8072" stroke-width="2" points="571.76,-397 569.26,-397 "/>
</g>
<!-- ine5423 -->
<g id="node38" class="node">
<title>ine5423</title>
<polygon fill="#bebada" stroke="#bebada" points="810,-432 709,-432 709,-394 810,-394 810,-432"/>
<text text-anchor="middle" x="759.5" y="-416.8" font-family="Arial" font-size="14.00">INE5423</text>
<text text-anchor="middle" x="759.5" y="-401.8" font-family="Arial" font-size="14.00">BD I</text>
</g>
<!-- ine5408&#45;&gt;ine5423 -->
<g id="edge26" class="edge">
<title>ine5408&#45;&gt;ine5423</title>
<path fill="none" stroke="#fb8072" stroke-width="2" d="M399.35,-183.6C404,-183.6 407,-183.6 407,-183.6 407,-183.6 407,-423 407,-423 407,-423 706.5,-423 706.5,-423"/>
<polygon fill="#fb8072" stroke="#fb8072" stroke-width="2" points="708.5,-420.5 708.5,-425.5 707.5,-425.5 707.5,-420.5 708.5,-420.5"/>
<polyline fill="none" stroke="#fb8072" stroke-width="2" points="709,-423 706.5,-423 "/>
</g>
<!-- ine5412 -->
<g id="node26" class="node">
<title>ine5412</title>
<polygon fill="#80b1d3" stroke="#80b1d3" points="536,-342 435,-342 435,-304 536,-304 536,-342"/>
<text text-anchor="middle" x="485.5" y="-326.8" font-family="Arial" font-size="14.00">INE5412</text>
<text text-anchor="middle" x="485.5" y="-311.8" font-family="Arial" font-size="14.00">SO I</text>
</g>
<!-- ine5410&#45;&gt;ine5412 -->
<g id="edge27" class="edge">
<title>ine5410&#45;&gt;ine5412</title>
<path fill="none" stroke="#80b1d3" stroke-width="2" d="M399.25,-238C411.43,-238 421,-238 421,-238 421,-238 421,-314 421,-314 421,-314 432.5,-314 432.5,-314"/>
<polygon fill="#80b1d3" stroke="#80b1d3" stroke-width="2" points="434.5,-311.5 434.5,-316.5 433.5,-316.5 433.5,-311.5 434.5,-311.5"/>
<polyline fill="none" stroke="#80b1d3" stroke-width="2" points="435,-314 432.5,-314 "/>
</g>
<!-- ine5411&#45;&gt;ine5412 -->
<g id="edge28" class="edge">
<title>ine5411&#45;&gt;ine5412</title>
<path fill="none" stroke="#80b1d3" stroke-width="2" d="M399.31,-294C438.48,-294 486,-294 486,-294 486,-294 486,-301.32 486,-301.32"/>
<polygon fill="#80b1d3" stroke="#80b1d3" stroke-width="2" points="488.5,-303.32 483.5,-303.32 483.5,-302.32 488.5,-302.32 488.5,-303.32"/>
<polyline fill="none" stroke="#80b1d3" stroke-width="2" points="486,-303.82 486,-301.32 "/>
</g>
<!-- ine5418 -->
<g id="node33" class="node">
<title>ine5418</title>
<polygon fill="#80b1d3" stroke="#80b1d3" points="673,-362 572,-362 572,-324 673,-324 673,-362"/>
<text text-anchor="middle" x="622.5" y="-346.8" font-family="Arial" font-size="14.00">INE5418</text>
<text text-anchor="middle" x="622.5" y="-331.8" font-family="Arial" font-size="14.00">Comp. Dist.</text>
</g>
<!-- ine5412&#45;&gt;ine5418 -->
<g id="edge29" class="edge">
<title>ine5412&#45;&gt;ine5418</title>
<path fill="none" stroke="#80b1d3" stroke-width="2" d="M536.12,-336C536.12,-336 569.13,-336 569.13,-336"/>
<polygon fill="#80b1d3" stroke="#80b1d3" stroke-width="2" points="571.13,-333.5 571.13,-338.5 570.13,-338.5 570.13,-333.5 571.13,-333.5"/>
<polyline fill="none" stroke="#80b1d3" stroke-width="2" points="571.63,-336 569.13,-336 "/>
</g>
<!-- ine5424 -->
<g id="node39" class="node">
<title>ine5424</title>
<polygon fill="#80b1d3" stroke="#80b1d3" points="810,-264 709,-264 709,-226 810,-226 810,-264"/>
<text text-anchor="middle" x="759.5" y="-248.8" font-family="Arial" font-size="14.00">INE5424</text>
<text text-anchor="middle" x="759.5" y="-233.8" font-family="Arial" font-size="14.00">SO II</text>
</g>
<!-- ine5412&#45;&gt;ine5424 -->
<g id="edge30" class="edge">
<title>ine5412&#45;&gt;ine5424</title>
<path fill="none" stroke="#80b1d3" stroke-width="2" d="M536.33,-313C550.94,-313 563,-313 563,-313 563,-313 563,-257 563,-257 563,-257 706.4,-257 706.4,-257"/>
<polygon fill="#80b1d3" stroke="#80b1d3" stroke-width="2" points="708.4,-254.5 708.4,-259.5 707.4,-259.5 707.4,-254.5 708.4,-254.5"/>
<polyline fill="none" stroke="#80b1d3" stroke-width="2" points="708.9,-257 706.4,-257 "/>
</g>
<!-- ine5430 -->
<g id="node43" class="node">
<title>ine5430</title>
<polygon fill="#8dd3c7" stroke="#8dd3c7" points="810,-96 709,-96 709,-58 810,-58 810,-96"/>
<text text-anchor="middle" x="759.5" y="-80.8" font-family="Arial" font-size="14.00">INE5430</text>
<text text-anchor="middle" x="759.5" y="-65.8" font-family="Arial" font-size="14.00">IA</text>
</g>
<!-- ine5413&#45;&gt;ine5430 -->
<g id="edge31" class="edge">
<title>ine5413&#45;&gt;ine5430</title>
<path fill="none" stroke="#8dd3c7" stroke-width="2" d="M536.08,-84C536.08,-84 706.26,-84 706.26,-84"/>
<polygon fill="#8dd3c7" stroke="#8dd3c7" stroke-width="2" points="708.26,-81.5 708.26,-86.5 707.26,-86.5 707.26,-81.5 708.26,-81.5"/>
<polyline fill="none" stroke="#8dd3c7" stroke-width="2" points="708.76,-84 706.26,-84 "/>
</g>
<!-- ine5414&#45;&gt;ine5418 -->
<g id="edge32" class="edge">
<title>ine5414&#45;&gt;ine5418</title>
<path fill="none" stroke="#bebada" stroke-width="2" d="M536.22,-44.4C541.51,-44.4 545,-44.4 545,-44.4 545,-44.4 545,-330 545,-330 545,-330 569.17,-330 569.17,-330"/>
<polygon fill="#bebada" stroke="#bebada" stroke-width="2" points="571.17,-327.5 571.17,-332.5 570.17,-332.5 570.17,-327.5 571.17,-327.5"/>
<polyline fill="none" stroke="#bebada" stroke-width="2" points="571.67,-330 569.17,-330 "/>
</g>
<!-- ine5422 -->
<g id="node37" class="node">
<title>ine5422</title>
<polygon fill="#bebada" stroke="#bebada" points="673,-194 572,-194 572,-156 673,-156 673,-194"/>
<text text-anchor="middle" x="622.5" y="-178.8" font-family="Arial" font-size="14.00">INE5422</text>
<text text-anchor="middle" x="622.5" y="-163.8" font-family="Arial" font-size="14.00">Redes II</text>
</g>
<!-- ine5414&#45;&gt;ine5422 -->
<g id="edge33" class="edge">
<title>ine5414&#45;&gt;ine5422</title>
<path fill="none" stroke="#bebada" stroke-width="2" d="M536.09,-51.2C581.15,-51.2 640,-51.2 640,-51.2 640,-51.2 640,-153.43 640,-153.43"/>
<polygon fill="#bebada" stroke="#bebada" stroke-width="2" points="642.5,-155.43 637.5,-155.43 637.5,-154.43 642.5,-154.43 642.5,-155.43"/>
<polyline fill="none" stroke="#bebada" stroke-width="2" points="640,-155.93 640,-153.43 "/>
</g>
<!-- ine5414&#45;&gt;ine5429 -->
<g id="edge34" class="edge">
<title>ine5414&#45;&gt;ine5429</title>
<path fill="none" stroke="#bebada" stroke-width="2" d="M536.36,-37.6C629.5,-37.6 818,-37.6 818,-37.6 818,-37.6 818,-371 818,-371 818,-371 843.4,-371 843.4,-371"/>
<polygon fill="#bebada" stroke="#bebada" stroke-width="2" points="845.4,-368.5 845.4,-373.5 844.4,-373.5 844.4,-368.5 845.4,-368.5"/>
<polyline fill="none" stroke="#bebada" stroke-width="2" points="845.9,-371 843.4,-371 "/>
</g>
<!-- ine5431 -->
<g id="node47" class="node">
<title>ine5431</title>
<polygon fill="#bebada" stroke="#bebada" points="947,-236 846,-236 846,-198 947,-198 947,-236"/>
<text text-anchor="middle" x="896.5" y="-220.8" font-family="Arial" font-size="14.00">INE5431</text>
<text text-anchor="middle" x="896.5" y="-205.8" font-family="Arial" font-size="14.00">Multimídia</text>
</g>
<!-- ine5414&#45;&gt;ine5431 -->
<g id="edge35" class="edge">
<title>ine5414&#45;&gt;ine5431</title>
<path fill="none" stroke="#bebada" stroke-width="2" d="M536.37,-30.8C646.47,-30.8 897,-30.8 897,-30.8 897,-30.8 897,-195.27 897,-195.27"/>
<polygon fill="#bebada" stroke="#bebada" stroke-width="2" points="899.5,-197.27 894.5,-197.27 894.5,-196.27 899.5,-196.27 899.5,-197.27"/>
<polyline fill="none" stroke="#bebada" stroke-width="2" points="897,-197.77 897,-195.27 "/>
</g>
<!-- ine5421 -->
<g id="node36" class="node">
<title>ine5421</title>
<polygon fill="#8dd3c7" stroke="#8dd3c7" points="673,-306 572,-306 572,-268 673,-268 673,-306"/>
<text text-anchor="middle" x="622.5" y="-290.8" font-family="Arial" font-size="14.00">INE5421</text>
<text text-anchor="middle" x="622.5" y="-275.8" font-family="Arial" font-size="14.00">Ling. Formais</text>
</g>
<!-- ine5415&#45;&gt;ine5421 -->
<g id="edge36" class="edge">
<title>ine5415&#45;&gt;ine5421</title>
<path fill="none" stroke="#8dd3c7" stroke-width="2" d="M536.12,-277C536.12,-277 569.13,-277 569.13,-277"/>
<polygon fill="#8dd3c7" stroke="#8dd3c7" stroke-width="2" points="571.13,-274.5 571.13,-279.5 570.13,-279.5 570.13,-274.5 571.13,-274.5"/>
<polyline fill="none" stroke="#8dd3c7" stroke-width="2" points="571.63,-277 569.13,-277 "/>
</g>
<!-- ine5416&#45;&gt;ine5430 -->
<g id="edge37" class="edge">
<title>ine5416&#45;&gt;ine5430</title>
<path fill="none" stroke="#8dd3c7" stroke-width="2" d="M536.25,-141.33C569.19,-141.33 606,-141.33 606,-141.33 606,-141.33 606,-88 606,-88 606,-88 706.31,-88 706.31,-88"/>
<polygon fill="#8dd3c7" stroke="#8dd3c7" stroke-width="2" points="708.31,-85.5 708.31,-90.5 707.31,-90.5 707.31,-85.5 708.31,-85.5"/>
<polyline fill="none" stroke="#8dd3c7" stroke-width="2" points="708.81,-88 706.31,-88 "/>
</g>
<!-- ine5419 -->
<g id="node34" class="node">
<title>ine5419</title>
<polygon fill="#fb8072" stroke="#fb8072" points="673,-250 572,-250 572,-212 673,-212 673,-250"/>
<text text-anchor="middle" x="622.5" y="-234.8" font-family="Arial" font-size="14.00">INE5419</text>
<text text-anchor="middle" x="622.5" y="-219.8" font-family="Arial" font-size="14.00">ES II</text>
</g>
<!-- ine5417&#45;&gt;ine5419 -->
<g id="edge38" class="edge">
<title>ine5417&#45;&gt;ine5419</title>
<path fill="none" stroke="#fb8072" stroke-width="2" d="M536.12,-221C536.12,-221 569.13,-221 569.13,-221"/>
<polygon fill="#fb8072" stroke="#fb8072" stroke-width="2" points="571.13,-218.5 571.13,-223.5 570.13,-223.5 570.13,-218.5 571.13,-218.5"/>
<polyline fill="none" stroke="#fb8072" stroke-width="2" points="571.63,-221 569.13,-221 "/>
</g>
<!-- ine5427 -->
<g id="node42" class="node">
<title>ine5427</title>
<polygon fill="#fb8072" stroke="#fb8072" points="810,-208 709,-208 709,-170 810,-170 810,-208"/>
<text text-anchor="middle" x="759.5" y="-192.8" font-family="Arial" font-size="14.00">INE5427</text>
<text text-anchor="middle" x="759.5" y="-177.8" font-family="Arial" font-size="14.00">P&amp;GP</text>
</g>
<!-- ine5417&#45;&gt;ine5427 -->
<g id="edge39" class="edge">
<title>ine5417&#45;&gt;ine5427</title>
<path fill="none" stroke="#fb8072" stroke-width="2" d="M536.08,-203.33C536.08,-203.33 706.26,-203.33 706.26,-203.33"/>
<polygon fill="#fb8072" stroke="#fb8072" stroke-width="2" points="708.26,-200.83 708.26,-205.83 707.26,-205.83 707.26,-200.83 708.26,-200.83"/>
<polyline fill="none" stroke="#fb8072" stroke-width="2" points="708.76,-203.33 706.26,-203.33 "/>
</g>
<!-- ine5453 -->
<g id="node44" class="node">
<title>ine5453</title>
<polygon fill="#fb8072" stroke="#fb8072" points="810,-152 709,-152 709,-114 810,-114 810,-152"/>
<text text-anchor="middle" x="759.5" y="-136.8" font-family="Arial" font-size="14.00">INE5453</text>
<text text-anchor="middle" x="759.5" y="-121.8" font-family="Arial" font-size="14.00">Introd. TCC</text>
</g>
<!-- ine5417&#45;&gt;ine5453 -->
<g id="edge40" class="edge">
<title>ine5417&#45;&gt;ine5453</title>
<path fill="none" stroke="#fb8072" stroke-width="2" d="M536,-198.67C546.27,-198.67 554,-198.67 554,-198.67 554,-198.67 554,-146.67 554,-146.67 554,-146.67 706.47,-146.67 706.47,-146.67"/>
<polygon fill="#fb8072" stroke="#fb8072" stroke-width="2" points="708.47,-144.17 708.47,-149.17 707.47,-149.17 707.47,-144.17 708.47,-144.17"/>
<polyline fill="none" stroke="#fb8072" stroke-width="2" points="708.97,-146.67 706.47,-146.67 "/>
</g>
<!-- ine5405&#45;&gt;ine5425 -->
<g id="edge17" class="edge">
<title>ine5405&#45;&gt;ine5425</title>
<path fill="none" stroke="#fdb462" stroke-width="2" d="M673.33,-452C687.94,-452 700,-452 700,-452 700,-452 700,-368.8 700,-368.8 700,-368.8 706.28,-368.8 706.28,-368.8"/>
<polygon fill="#fdb462" stroke="#fdb462" stroke-width="2" points="708.28,-366.3 708.28,-371.3 707.28,-371.3 707.28,-366.3 708.28,-366.3"/>
<polyline fill="none" stroke="#fdb462" stroke-width="2" points="708.78,-368.8 706.28,-368.8 "/>
</g>
<!-- ine5405&#45;&gt;ine5430 -->
<g id="edge18" class="edge">
<title>ine5405&#45;&gt;ine5430</title>
<path fill="none" stroke="#fdb462" stroke-width="2" d="M673,-444C683.27,-444 691,-444 691,-444 691,-444 691,-92 691,-92 691,-92 706.5,-92 706.5,-92"/>
<polygon fill="#fdb462" stroke="#fdb462" stroke-width="2" points="708.5,-89.5 708.5,-94.5 707.5,-94.5 707.5,-89.5 708.5,-89.5"/>
<polyline fill="none" stroke="#fdb462" stroke-width="2" points="709,-92 706.5,-92 "/>
</g>
<!-- ine5426 -->
<g id="node41" class="node">
<title>ine5426</title>
<polygon fill="#8dd3c7" stroke="#8dd3c7" points="810,-320 709,-320 709,-282 810,-282 810,-320"/>
<text text-anchor="middle" x="759.5" y="-304.8" font-family="Arial" font-size="14.00">INE5426</text>
<text text-anchor="middle" x="759.5" y="-289.8" font-family="Arial" font-size="14.00">Compiladores</text>
</g>
<!-- ine5421&#45;&gt;ine5426 -->
<g id="edge41" class="edge">
<title>ine5421&#45;&gt;ine5426</title>
<path fill="none" stroke="#8dd3c7" stroke-width="2" d="M673.12,-294C673.12,-294 706.13,-294 706.13,-294"/>
<polygon fill="#8dd3c7" stroke="#8dd3c7" stroke-width="2" points="708.13,-291.5 708.13,-296.5 707.13,-296.5 707.13,-291.5 708.13,-291.5"/>
<polyline fill="none" stroke="#8dd3c7" stroke-width="2" points="708.63,-294 706.13,-294 "/>
</g>
<!-- ine5432 -->
<g id="node48" class="node">
<title>ine5432</title>
<polygon fill="#bebada" stroke="#bebada" points="947,-348 846,-348 846,-310 947,-310 947,-348"/>
<text text-anchor="middle" x="896.5" y="-332.8" font-family="Arial" font-size="14.00">INE5432</text>
<text text-anchor="middle" x="896.5" y="-317.8" font-family="Arial" font-size="14.00">BD II</text>
</g>
<!-- ine5423&#45;&gt;ine5432 -->
<g id="edge42" class="edge">
<title>ine5423&#45;&gt;ine5432</title>
<path fill="none" stroke="#bebada" stroke-width="2" d="M810.3,-399C825.88,-399 839,-399 839,-399 839,-399 839,-343 839,-343 839,-343 843.1,-343 843.1,-343"/>
<polygon fill="#bebada" stroke="#bebada" stroke-width="2" points="845.1,-340.5 845.1,-345.5 844.1,-345.5 844.1,-340.5 845.1,-340.5"/>
<polyline fill="none" stroke="#bebada" stroke-width="2" points="845.6,-343 843.1,-343 "/>
</g>
<!-- ine5433 -->
<g id="node49" class="node">
<title>ine5433</title>
<polygon fill="#fb8072" stroke="#fb8072" points="947,-292 846,-292 846,-254 947,-254 947,-292"/>
<text text-anchor="middle" x="896.5" y="-276.8" font-family="Arial" font-size="14.00">INE5433</text>
<text text-anchor="middle" x="896.5" y="-261.8" font-family="Arial" font-size="14.00">TCC I</text>
</g>
<!-- ine5427&#45;&gt;ine5433 -->
<g id="edge43" class="edge">
<title>ine5427&#45;&gt;ine5433</title>
<path fill="none" stroke="#fb8072" stroke-width="2" d="M810.14,-203C818.76,-203 825,-203 825,-203 825,-203 825,-260.67 825,-260.67 825,-260.67 843.18,-260.67 843.18,-260.67"/>
<polygon fill="#fb8072" stroke="#fb8072" stroke-width="2" points="845.18,-258.17 845.18,-263.17 844.18,-263.17 844.18,-258.17 845.18,-258.17"/>
<polyline fill="none" stroke="#fb8072" stroke-width="2" points="845.68,-260.67 843.18,-260.67 "/>
</g>
<!-- ine5453&#45;&gt;ine5433 -->
<g id="edge45" class="edge">
<title>ine5453&#45;&gt;ine5433</title>
<path fill="none" stroke="#fb8072" stroke-width="2" d="M810.25,-133C822.43,-133 832,-133 832,-133 832,-133 832,-257.33 832,-257.33 832,-257.33 843.5,-257.33 843.5,-257.33"/>
<polygon fill="#fb8072" stroke="#fb8072" stroke-width="2" points="845.5,-254.83 845.5,-259.83 844.5,-259.83 844.5,-254.83 845.5,-254.83"/>
<polyline fill="none" stroke="#fb8072" stroke-width="2" points="846,-257.33 843.5,-257.33 "/>
</g>
<!-- ine5434 -->
<g id="node50" class="node">
<title>ine5434</title>
<polygon fill="#fb8072" stroke="#fb8072" points="1084,-483 983,-483 983,-445 1084,-445 1084,-483"/>
<text text-anchor="middle" x="1033.5" y="-467.8" font-family="Arial" font-size="14.00">INE5434</text>
<text text-anchor="middle" x="1033.5" y="-452.8" font-family="Arial" font-size="14.00">TCC II</text>
</g>
<!-- ine5433&#45;&gt;ine5434 -->
<g id="edge44" class="edge">
<title>ine5433&#45;&gt;ine5434</title>
<path fill="none" stroke="#fb8072" stroke-width="2" d="M947,-287.5C957.27,-287.5 965,-287.5 965,-287.5 965,-287.5 965,-452.5 965,-452.5 965,-452.5 980.5,-452.5 980.5,-452.5"/>
<polygon fill="#fb8072" stroke="#fb8072" stroke-width="2" points="982.5,-450 982.5,-455 981.5,-455 981.5,-450 982.5,-450"/>
<polyline fill="none" stroke="#fb8072" stroke-width="2" points="983,-452.5 980.5,-452.5 "/>
</g>
<!-- opt1 -->
<g id="node51" class="node">
<title>opt1</title>
<polygon fill="lightgrey" stroke="black" points="1084,-427 983,-427 983,-391 1084,-391 1084,-427"/>
<text text-anchor="middle" x="1033.5" y="-412.4" font-family="Arial" font-size="12.00">Optativas INE</text>
<text text-anchor="middle" x="1033.5" y="-399.4" font-family="Arial" font-size="12.00">(288 h/a)</text>
</g>
<!-- opt2 -->
<g id="node52" class="node">
<title>opt2</title>
<polygon fill="lightgrey" stroke="black" points="1084,-373 983,-373 983,-337 1084,-337 1084,-373"/>
<text text-anchor="middle" x="1033.5" y="-358.4" font-family="Arial" font-size="12.00">Optativas ext.</text>
<text text-anchor="middle" x="1033.5" y="-345.4" font-family="Arial" font-size="12.00">(144 h/a)</text>
</g>
<!-- comp -->
<g id="node53" class="node">
<title>comp</title>
<polygon fill="lightgrey" stroke="black" points="1084,-319 983,-319 983,-283 1084,-283 1084,-319"/>
<text text-anchor="middle" x="1033.5" y="-304.4" font-family="Arial" font-size="12.00">Ativid. compl.</text>
<text text-anchor="middle" x="1033.5" y="-291.4" font-family="Arial" font-size="12.00">(168 h/a)</text>
</g>
<!-- info -->
<g id="node54" class="node">
<title>info</title>
<polygon fill="transparent" stroke="transparent" points="1084,-265.5 983,-265.5 983,-96.5 1084,-96.5 1084,-265.5"/>
<image xlink:href="logo-ufsc.svg" width="101px" height="138.976px" preserveAspectRatio="xMinYMin meet" x="983" y="-265.5"/>
<text text-anchor="middle" x="1033.5" y="-114.9" font-family="Arial" font-size="7.00">UFSC/CTC/INE</text>
<text text-anchor="middle" x="1033.5" y="-106.9" font-family="Arial" font-size="7.00">Ciência da Computação</text>
<text text-anchor="middle" x="1033.5" y="-98.9" font-family="Arial" font-size="7.00">Árvore Curricular 2007/1</text>
</g>
<!-- license -->
<g id="node55" class="node">
<title>license</title>
<polygon fill="transparent" stroke="transparent" points="1084,-78 983,-78 983,-24 1084,-24 1084,-78"/>
<image xlink:href="by-nc-sa.svg" width="101px" height="35.35px" preserveAspectRatio="xMinYMin meet" x="983" y="-78"/>
<text text-anchor="middle" x="1033.5" y="-34.4" font-family="mono" font-size="7.00">gustavo.zambonin</text>
<text text-anchor="middle" x="1033.5" y="-26.4" font-family="mono" font-size="7.00">at grad.ufsc.br</text>
</g>
</g>
</svg>
