<?xml version="1.0" encoding="UTF-8" standalone="no"?>
<!DOCTYPE svg PUBLIC "-//W3C//DTD SVG 1.1//EN"
 "http://www.w3.org/Graphics/SVG/1.1/DTD/svg11.dtd">
<!-- Generated by graphviz version 8.0.1 (0)
 -->
<!-- Title: curriculum&#45;graph&#45;compsci&#45;ufsc&#45;2023 Pages: 1 -->
<svg width="1254pt" height="756pt"
 viewBox="0.00 0.00 1254.00 756.00" xmlns="http://www.w3.org/2000/svg" xmlns:xlink="http://www.w3.org/1999/xlink">
<g id="graph0" class="graph" transform="scale(1 1) rotate(0) translate(4 752)">
<title>curriculum&#45;graph&#45;compsci&#45;ufsc&#45;2023</title>
<polygon fill="none" stroke="none" points="-4,4 -4,-752 1250,-752 1250,4 -4,4"/>
<g id="clust1" class="cluster">
<title>cluster_everything</title>
<polygon fill="none" stroke="none" points="8,-8 8,-740 1238,-740 1238,-8 8,-8"/>
</g>
<g id="clust2" class="cluster">
<title>cluster_header</title>
<polygon fill="none" stroke="none" points="16,-680 16,-732 1230,-732 1230,-680 16,-680"/>
</g>
<g id="clust3" class="cluster">
<title>cluster_1</title>
<polygon fill="none" stroke="none" points="16,-199 16,-575 133,-575 133,-199 16,-199"/>
</g>
<g id="clust4" class="cluster">
<title>cluster_2</title>
<polygon fill="none" stroke="none" points="153,-217 153,-635 270,-635 270,-217 153,-217"/>
</g>
<g id="clust5" class="cluster">
<title>cluster_3</title>
<polygon fill="none" stroke="none" points="290,-101 290,-524 407,-524 407,-101 290,-101"/>
</g>
<g id="clust6" class="cluster">
<title>cluster_4</title>
<polygon fill="none" stroke="none" points="427,-208 427,-638 544,-638 544,-208 427,-208"/>
</g>
<g id="clust7" class="cluster">
<title>cluster_5</title>
<polygon fill="none" stroke="none" points="564,-16 564,-416 681,-416 681,-16 564,-16"/>
</g>
<g id="clust8" class="cluster">
<title>cluster_6</title>
<polygon fill="none" stroke="none" points="701,-70 701,-500 818,-500 818,-70 701,-70"/>
</g>
<g id="clust9" class="cluster">
<title>cluster_7</title>
<polygon fill="none" stroke="none" points="838,-242 838,-672 956,-672 956,-242 838,-242"/>
</g>
<g id="clust10" class="cluster">
<title>cluster_8</title>
<polygon fill="none" stroke="none" points="976,-215 976,-645 1093,-645 1093,-215 976,-215"/>
</g>
<g id="clust11" class="cluster">
<title>cluster_9</title>
<polygon fill="none" stroke="none" points="1113,-36 1113,-654 1230,-654 1230,-36 1113,-36"/>
</g>
<!-- Fase 1 -->
<g id="node1" class="node">
<title>Fase 1</title>
<polygon fill="lightgrey" stroke="black" points="125,-724 24,-724 24,-688 125,-688 125,-724"/>
<text text-anchor="middle" x="74.5" y="-702.3" font-family="Arial" font-size="14.00">Fase 1</text>
</g>
<!-- Fase 2 -->
<g id="node2" class="node">
<title>Fase 2</title>
<polygon fill="lightgrey" stroke="black" points="262,-724 161,-724 161,-688 262,-688 262,-724"/>
<text text-anchor="middle" x="211.5" y="-702.3" font-family="Arial" font-size="14.00">Fase 2</text>
</g>
<!-- Fase 1&#45;&gt;Fase 2 -->
<!-- Fase 3 -->
<g id="node3" class="node">
<title>Fase 3</title>
<polygon fill="lightgrey" stroke="black" points="399,-724 298,-724 298,-688 399,-688 399,-724"/>
<text text-anchor="middle" x="348.5" y="-702.3" font-family="Arial" font-size="14.00">Fase 3</text>
</g>
<!-- Fase 2&#45;&gt;Fase 3 -->
<!-- Fase 4 -->
<g id="node4" class="node">
<title>Fase 4</title>
<polygon fill="lightgrey" stroke="black" points="536,-724 435,-724 435,-688 536,-688 536,-724"/>
<text text-anchor="middle" x="485.5" y="-702.3" font-family="Arial" font-size="14.00">Fase 4</text>
</g>
<!-- Fase 3&#45;&gt;Fase 4 -->
<!-- Fase 5 -->
<g id="node5" class="node">
<title>Fase 5</title>
<polygon fill="lightgrey" stroke="black" points="673,-724 572,-724 572,-688 673,-688 673,-724"/>
<text text-anchor="middle" x="622.5" y="-702.3" font-family="Arial" font-size="14.00">Fase 5</text>
</g>
<!-- Fase 4&#45;&gt;Fase 5 -->
<!-- Fase 6 -->
<g id="node6" class="node">
<title>Fase 6</title>
<polygon fill="lightgrey" stroke="black" points="810,-724 709,-724 709,-688 810,-688 810,-724"/>
<text text-anchor="middle" x="759.5" y="-702.3" font-family="Arial" font-size="14.00">Fase 6</text>
</g>
<!-- Fase 5&#45;&gt;Fase 6 -->
<!-- Fase 7 -->
<g id="node7" class="node">
<title>Fase 7</title>
<polygon fill="lightgrey" stroke="black" points="947.5,-724 846.5,-724 846.5,-688 947.5,-688 947.5,-724"/>
<text text-anchor="middle" x="897" y="-702.3" font-family="Arial" font-size="14.00">Fase 7</text>
</g>
<!-- Fase 6&#45;&gt;Fase 7 -->
<!-- Fase 8 -->
<g id="node8" class="node">
<title>Fase 8</title>
<polygon fill="lightgrey" stroke="black" points="1085,-724 984,-724 984,-688 1085,-688 1085,-724"/>
<text text-anchor="middle" x="1034.5" y="-702.3" font-family="Arial" font-size="14.00">Fase 8</text>
</g>
<!-- Fase 7&#45;&gt;Fase 8 -->
<!-- Fase 9+ -->
<g id="node9" class="node">
<title>Fase 9+</title>
<polygon fill="lightgrey" stroke="black" points="1222,-724 1121,-724 1121,-688 1222,-688 1222,-724"/>
<text text-anchor="middle" x="1171.5" y="-702.3" font-family="Arial" font-size="14.00">Fase 9+</text>
</g>
<!-- Fase 8&#45;&gt;Fase 9+ -->
<!-- f01_prep -->
<g id="node10" class="node">
<title>f01_prep</title>
<polygon fill="#ffffb3" stroke="#ffffb3" points="125,-567 24,-567 24,-531 125,-531 125,-567"/>
<text text-anchor="middle" x="74.5" y="-545.3" font-family="Arial" font-size="14.00">Prep. Carreira</text>
</g>
<!-- f01_iape -->
<g id="node11" class="node">
<title>f01_iape</title>
<polygon fill="#fb8072" stroke="#fb8072" points="125,-297 24,-297 24,-207 125,-207 125,-297"/>
<text text-anchor="middle" x="74.5" y="-270.8" font-family="Arial" font-size="14.00">Introdução à</text>
<text text-anchor="middle" x="74.5" y="-255.8" font-family="Arial" font-size="14.00">Algoritmos e</text>
<text text-anchor="middle" x="74.5" y="-240.8" font-family="Arial" font-size="14.00">Programação</text>
<text text-anchor="middle" x="74.5" y="-225.8" font-family="Arial" font-size="14.00">Estruturada</text>
</g>
<!-- f02_edl -->
<g id="node16" class="node">
<title>f02_edl</title>
<polygon fill="#fb8072" stroke="#fb8072" points="262,-315 161,-315 161,-225 262,-225 262,-315"/>
<text text-anchor="middle" x="211.5" y="-288.8" font-family="Arial" font-size="14.00">Algoritmos e</text>
<text text-anchor="middle" x="211.5" y="-273.8" font-family="Arial" font-size="14.00">Estruturas de</text>
<text text-anchor="middle" x="211.5" y="-258.8" font-family="Arial" font-size="14.00">Dados</text>
<text text-anchor="middle" x="211.5" y="-243.8" font-family="Arial" font-size="14.00"> Lineares</text>
</g>
<!-- f01_iape&#45;&gt;f02_edl -->
<g id="edge9" class="edge">
<title>f01_iape&#45;&gt;f02_edl</title>
<path fill="none" stroke="#fb8072" stroke-width="2" d="M125.12,-249C125.12,-249 158.13,-249 158.13,-249"/>
<polygon fill="#fb8072" stroke="#fb8072" stroke-width="2" points="159.63,-246.5 159.63,-251.5 158.63,-251.5 158.63,-246.5 159.63,-246.5"/>
<polyline fill="none" stroke="#fb8072" stroke-width="2" points="160.13,-249 157.63,-249"/>
</g>
<!-- f02_ids -->
<g id="node17" class="node">
<title>f02_ids</title>
<polygon fill="#fb8072" stroke="#fb8072" points="262,-531 161,-531 161,-477 262,-477 262,-531"/>
<text text-anchor="middle" x="211.5" y="-515.3" font-family="Arial" font-size="14.00">Introdução ao</text>
<text text-anchor="middle" x="211.5" y="-500.3" font-family="Arial" font-size="14.00">Desenvolv. de</text>
<text text-anchor="middle" x="211.5" y="-485.3" font-family="Arial" font-size="14.00">Sistemas</text>
</g>
<!-- f01_iape&#45;&gt;f02_ids -->
<g id="edge10" class="edge">
<title>f01_iape&#45;&gt;f02_ids</title>
<path fill="none" stroke="#fb8072" stroke-width="2" d="M125.33,-273C139.94,-273 152,-273 152,-273 152,-273 152,-489 152,-489 152,-489 158.02,-489 158.02,-489"/>
<polygon fill="#fb8072" stroke="#fb8072" stroke-width="2" points="159.52,-486.5 159.52,-491.5 158.52,-491.5 158.52,-486.5 159.52,-486.5"/>
<polyline fill="none" stroke="#fb8072" stroke-width="2" points="160.02,-489 157.52,-489"/>
</g>
<!-- f03_poo -->
<g id="node21" class="node">
<title>f03_poo</title>
<polygon fill="#fb8072" stroke="#fb8072" points="399,-289 298,-289 298,-199 399,-199 399,-289"/>
<text text-anchor="middle" x="348.5" y="-255.3" font-family="Arial" font-size="14.00">Programação</text>
<text text-anchor="middle" x="348.5" y="-240.3" font-family="Arial" font-size="14.00">Orientada a</text>
<text text-anchor="middle" x="348.5" y="-225.3" font-family="Arial" font-size="14.00">Objetos</text>
</g>
<!-- f01_iape&#45;&gt;f03_poo -->
<g id="edge11" class="edge">
<title>f01_iape&#45;&gt;f03_poo</title>
<path fill="none" stroke="#fb8072" stroke-width="2" d="M125.4,-216C125.4,-216 295.38,-216 295.38,-216"/>
<polygon fill="#fb8072" stroke="#fb8072" stroke-width="2" points="296.88,-213.5 296.88,-218.5 295.88,-218.5 295.88,-213.5 296.88,-213.5"/>
<polyline fill="none" stroke="#fb8072" stroke-width="2" points="297.38,-216 294.88,-216"/>
</g>
<!-- f05_formais -->
<g id="node33" class="node">
<title>f05_formais</title>
<polygon fill="#8dd3c7" stroke="#8dd3c7" points="673,-78 572,-78 572,-24 673,-24 673,-78"/>
<text text-anchor="middle" x="622.5" y="-62.3" font-family="Arial" font-size="14.00">Linguagens</text>
<text text-anchor="middle" x="622.5" y="-47.3" font-family="Arial" font-size="14.00">Formais e</text>
<text text-anchor="middle" x="622.5" y="-32.3" font-family="Arial" font-size="14.00">Mod. de Rep.</text>
</g>
<!-- f01_iape&#45;&gt;f05_formais -->
<g id="edge13" class="edge">
<title>f01_iape&#45;&gt;f05_formais</title>
<path fill="none" stroke="#fb8072" stroke-width="2" d="M58,-206.69C58,-144.96 58,-42 58,-42 58,-42 569.41,-42 569.41,-42"/>
<polygon fill="#fb8072" stroke="#fb8072" stroke-width="2" points="570.91,-39.5 570.91,-44.5 569.91,-44.5 569.91,-39.5 570.91,-39.5"/>
<polyline fill="none" stroke="#fb8072" stroke-width="2" points="571.41,-42 568.91,-42"/>
</g>
<!-- f05_numerico -->
<g id="node37" class="node">
<title>f05_numerico</title>
<polygon fill="#fdb462" stroke="#fdb462" points="673,-222 572,-222 572,-168 673,-168 673,-222"/>
<text text-anchor="middle" x="622.5" y="-206.3" font-family="Arial" font-size="14.00">Cálculo</text>
<text text-anchor="middle" x="622.5" y="-191.3" font-family="Arial" font-size="14.00">Numérico</text>
<text text-anchor="middle" x="622.5" y="-176.3" font-family="Arial" font-size="14.00">Comput.</text>
</g>
<!-- f01_iape&#45;&gt;f05_numerico -->
<g id="edge12" class="edge">
<title>f01_iape&#45;&gt;f05_numerico</title>
<path fill="none" stroke="#fb8072" stroke-width="2" d="M92,-206.61C92,-197.16 92,-190 92,-190 92,-190 569.13,-190 569.13,-190"/>
<polygon fill="#fb8072" stroke="#fb8072" stroke-width="2" points="570.63,-187.5 570.63,-192.5 569.63,-192.5 569.63,-187.5 570.63,-187.5"/>
<polyline fill="none" stroke="#fb8072" stroke-width="2" points="571.13,-190 568.63,-190"/>
</g>
<!-- f01_discreta -->
<g id="node12" class="node">
<title>f01_discreta</title>
<polygon fill="#8dd3c7" stroke="#8dd3c7" points="125,-513 24,-513 24,-423 125,-423 125,-513"/>
<text text-anchor="middle" x="74.5" y="-486.8" font-family="Arial" font-size="14.00">Fund. da</text>
<text text-anchor="middle" x="74.5" y="-471.8" font-family="Arial" font-size="14.00">Matemática</text>
<text text-anchor="middle" x="74.5" y="-456.8" font-family="Arial" font-size="14.00">Discreta para</text>
<text text-anchor="middle" x="74.5" y="-441.8" font-family="Arial" font-size="14.00">Computação</text>
</g>
<!-- f04_grafos -->
<g id="node27" class="node">
<title>f04_grafos</title>
<polygon fill="#8dd3c7" stroke="#8dd3c7" points="536,-486 435,-486 435,-432 536,-432 536,-486"/>
<text text-anchor="middle" x="485.5" y="-470.3" font-family="Arial" font-size="14.00">Teoria dos</text>
<text text-anchor="middle" x="485.5" y="-455.3" font-family="Arial" font-size="14.00">Grafos e</text>
<text text-anchor="middle" x="485.5" y="-440.3" font-family="Arial" font-size="14.00">Aplicações</text>
</g>
<!-- f01_discreta&#45;&gt;f04_grafos -->
<g id="edge16" class="edge">
<title>f01_discreta&#45;&gt;f04_grafos</title>
<path fill="none" stroke="#8dd3c7" stroke-width="2" d="M125.36,-467C184.47,-467 274,-467 274,-467 274,-467 274,-451.5 274,-451.5 274,-451.5 432.07,-451.5 432.07,-451.5"/>
<polygon fill="#8dd3c7" stroke="#8dd3c7" stroke-width="2" points="433.57,-449 433.57,-454 432.57,-454 432.57,-449 433.57,-449"/>
<polyline fill="none" stroke="#8dd3c7" stroke-width="2" points="434.07,-451.5 431.57,-451.5"/>
</g>
<!-- f04_segcomp -->
<g id="node28" class="node">
<title>f04_segcomp</title>
<polygon fill="#8dd3c7" stroke="#8dd3c7" points="536,-630 435,-630 435,-576 536,-576 536,-630"/>
<text text-anchor="middle" x="485.5" y="-614.3" font-family="Arial" font-size="14.00">Segurança</text>
<text text-anchor="middle" x="485.5" y="-599.3" font-family="Arial" font-size="14.00">em</text>
<text text-anchor="middle" x="485.5" y="-584.3" font-family="Arial" font-size="14.00">Computação</text>
</g>
<!-- f01_discreta&#45;&gt;f04_segcomp -->
<g id="edge15" class="edge">
<title>f01_discreta&#45;&gt;f04_segcomp</title>
<path fill="none" stroke="#8dd3c7" stroke-width="2" d="M125.36,-501C135.45,-501 143,-501 143,-501 143,-501 143,-583.5 143,-583.5 143,-583.5 432.09,-583.5 432.09,-583.5"/>
<polygon fill="#8dd3c7" stroke="#8dd3c7" stroke-width="2" points="433.59,-581 433.59,-586 432.59,-586 432.59,-581 433.59,-581"/>
<polyline fill="none" stroke="#8dd3c7" stroke-width="2" points="434.09,-583.5 431.59,-583.5"/>
</g>
<!-- f01_discreta&#45;&gt;f05_formais -->
<g id="edge14" class="edge">
<title>f01_discreta&#45;&gt;f05_formais</title>
<path fill="none" stroke="#8dd3c7" stroke-width="2" d="M125.48,-441C130.62,-441 134,-441 134,-441 134,-441 134,-60 134,-60 134,-60 569.1,-60 569.1,-60"/>
<polygon fill="#8dd3c7" stroke="#8dd3c7" stroke-width="2" points="570.6,-57.5 570.6,-62.5 569.6,-62.5 569.6,-57.5 570.6,-57.5"/>
<polyline fill="none" stroke="#8dd3c7" stroke-width="2" points="571.1,-60 568.6,-60"/>
</g>
<!-- f01_icc -->
<g id="node13" class="node">
<title>f01_icc</title>
<polygon fill="#80b1d3" stroke="#80b1d3" points="125,-405 24,-405 24,-315 125,-315 125,-405"/>
<text text-anchor="middle" x="74.5" y="-371.3" font-family="Arial" font-size="14.00">Introdução à</text>
<text text-anchor="middle" x="74.5" y="-356.3" font-family="Arial" font-size="14.00">Ciência da</text>
<text text-anchor="middle" x="74.5" y="-341.3" font-family="Arial" font-size="14.00">Computação</text>
</g>
<!-- f02_circuitos -->
<g id="node18" class="node">
<title>f02_circuitos</title>
<polygon fill="#80b1d3" stroke="#80b1d3" points="262,-387 161,-387 161,-333 262,-333 262,-387"/>
<text text-anchor="middle" x="211.5" y="-363.8" font-family="Arial" font-size="14.00">Circuitos</text>
<text text-anchor="middle" x="211.5" y="-348.8" font-family="Arial" font-size="14.00">Digitais</text>
</g>
<!-- f01_icc&#45;&gt;f02_circuitos -->
<g id="edge17" class="edge">
<title>f01_icc&#45;&gt;f02_circuitos</title>
<path fill="none" stroke="#80b1d3" stroke-width="2" d="M125.12,-360C125.12,-360 158.13,-360 158.13,-360"/>
<polygon fill="#80b1d3" stroke="#80b1d3" stroke-width="2" points="159.63,-357.5 159.63,-362.5 158.63,-362.5 158.63,-357.5 159.63,-357.5"/>
<polyline fill="none" stroke="#80b1d3" stroke-width="2" points="160.13,-360 157.63,-360"/>
</g>
<!-- f02_mc -->
<g id="node14" class="node">
<title>f02_mc</title>
<polygon fill="#ffffb3" stroke="#ffffb3" points="262,-627 161,-627 161,-591 262,-591 262,-627"/>
<text text-anchor="middle" x="211.5" y="-605.3" font-family="Arial" font-size="14.00">Metodologia</text>
</g>
<!-- f07_ippg -->
<g id="node44" class="node">
<title>f07_ippg</title>
<polygon fill="#ffffb3" stroke="#ffffb3" points="948,-664 846,-664 846,-610 948,-610 948,-664"/>
<text text-anchor="middle" x="897" y="-648.3" font-family="Arial" font-size="14.00">Integração</text>
<text text-anchor="middle" x="897" y="-633.3" font-family="Arial" font-size="14.00">com Pesquisa</text>
<text text-anchor="middle" x="897" y="-618.3" font-family="Arial" font-size="14.00">e Pós&#45;Grad.</text>
</g>
<!-- f02_mc&#45;&gt;f07_ippg -->
<g id="edge18" class="edge">
<title>f02_mc&#45;&gt;f07_ippg</title>
<path fill="none" stroke="#ffffb3" stroke-width="2" d="M212,-627.11C212,-636.9 212,-647 212,-647 212,-647 843.01,-647 843.01,-647"/>
<polygon fill="#ffffb3" stroke="#ffffb3" stroke-width="2" points="844.51,-644.5 844.51,-649.5 843.51,-649.5 843.51,-644.5 844.51,-644.5"/>
<polyline fill="none" stroke="#ffffb3" stroke-width="2" points="845.01,-647 842.51,-647"/>
</g>
<!-- f07_iec -->
<g id="node45" class="node">
<title>f07_iec</title>
<polygon fill="#ffffb3" stroke="#ffffb3" points="947.5,-592 846.5,-592 846.5,-538 947.5,-538 947.5,-592"/>
<text text-anchor="middle" x="897" y="-561.3" font-family="Arial" font-size="14.00">Empreender</text>
</g>
<!-- f02_mc&#45;&gt;f07_iec -->
<g id="edge19" class="edge">
<title>f02_mc&#45;&gt;f07_iec</title>
<path fill="none" stroke="#ffffb3" stroke-width="2" d="M262.31,-609C301.48,-609 349,-609 349,-609 349,-609 349,-565.25 349,-565.25 349,-565.25 843.93,-565.25 843.93,-565.25"/>
<polygon fill="#ffffb3" stroke="#ffffb3" stroke-width="2" points="845.43,-562.75 845.43,-567.75 844.43,-567.75 844.43,-562.75 845.43,-562.75"/>
<polyline fill="none" stroke="#ffffb3" stroke-width="2" points="845.93,-565.25 843.43,-565.25"/>
</g>
<!-- f02_sah1 -->
<g id="node15" class="node">
<title>f02_sah1</title>
<polygon fill="#ffffb3" stroke="#ffffb3" points="262,-572.5 161,-572.5 161,-549.5 262,-549.5 262,-572.5"/>
<text text-anchor="middle" x="211.5" y="-557.3" font-family="Arial" font-size="14.00">SAH I</text>
</g>
<!-- f03_edn -->
<g id="node20" class="node">
<title>f03_edn</title>
<polygon fill="#fb8072" stroke="#fb8072" points="399,-181 298,-181 298,-109 399,-109 399,-181"/>
<text text-anchor="middle" x="348.5" y="-163.8" font-family="Arial" font-size="14.00">Algoritmos e</text>
<text text-anchor="middle" x="348.5" y="-148.8" font-family="Arial" font-size="14.00">Estruturas de</text>
<text text-anchor="middle" x="348.5" y="-133.8" font-family="Arial" font-size="14.00">Dados</text>
<text text-anchor="middle" x="348.5" y="-118.8" font-family="Arial" font-size="14.00">Não&#45;Lineares</text>
</g>
<!-- f02_edl&#45;&gt;f03_edn -->
<g id="edge20" class="edge">
<title>f02_edl&#45;&gt;f03_edn</title>
<path fill="none" stroke="#fb8072" stroke-width="2" d="M212,-224.52C212,-188.78 212,-145 212,-145 212,-145 295.17,-145 295.17,-145"/>
<polygon fill="#fb8072" stroke="#fb8072" stroke-width="2" points="296.67,-142.5 296.67,-147.5 295.67,-147.5 295.67,-142.5 296.67,-142.5"/>
<polyline fill="none" stroke="#fb8072" stroke-width="2" points="297.17,-145 294.67,-145"/>
</g>
<!-- f04_engsoft -->
<g id="node29" class="node">
<title>f04_engsoft</title>
<polygon fill="#fb8072" stroke="#fb8072" points="536,-342 435,-342 435,-288 536,-288 536,-342"/>
<text text-anchor="middle" x="485.5" y="-318.8" font-family="Arial" font-size="14.00">Engenharia</text>
<text text-anchor="middle" x="485.5" y="-303.8" font-family="Arial" font-size="14.00">de Software</text>
</g>
<!-- f02_ids&#45;&gt;f04_engsoft -->
<g id="edge21" class="edge">
<title>f02_ids&#45;&gt;f04_engsoft</title>
<path fill="none" stroke="#fb8072" stroke-width="2" d="M262.43,-496.5C275.52,-496.5 286,-496.5 286,-496.5 286,-496.5 286,-339 286,-339 286,-339 432.14,-339 432.14,-339"/>
<polygon fill="#fb8072" stroke="#fb8072" stroke-width="2" points="433.64,-336.5 433.64,-341.5 432.64,-341.5 432.64,-336.5 433.64,-336.5"/>
<polyline fill="none" stroke="#fb8072" stroke-width="2" points="434.14,-339 431.64,-339"/>
</g>
<!-- f03_sistemas -->
<g id="node22" class="node">
<title>f03_sistemas</title>
<polygon fill="#80b1d3" stroke="#80b1d3" points="399,-330.5 298,-330.5 298,-307.5 399,-307.5 399,-330.5"/>
<text text-anchor="middle" x="348.5" y="-315.3" font-family="Arial" font-size="14.00">Sist. Dig.</text>
</g>
<!-- f02_circuitos&#45;&gt;f03_sistemas -->
<g id="edge23" class="edge">
<title>f02_circuitos&#45;&gt;f03_sistemas</title>
<path fill="none" stroke="#80b1d3" stroke-width="2" d="M262.31,-336C301.48,-336 349,-336 349,-336 349,-336 349,-333.49 349,-333.49"/>
<polygon fill="#80b1d3" stroke="#80b1d3" stroke-width="2" points="346.5,-331.99 351.5,-331.99 351.5,-332.99 346.5,-332.99 346.5,-331.99"/>
<polyline fill="none" stroke="#80b1d3" stroke-width="2" points="349,-331.49 349,-333.99"/>
</g>
<!-- f03_labsd -->
<g id="node23" class="node">
<title>f03_labsd</title>
<polygon fill="#80b1d3" stroke="#80b1d3" points="399,-371.5 298,-371.5 298,-348.5 399,-348.5 399,-371.5"/>
<text text-anchor="middle" x="348.5" y="-356.3" font-family="Arial" font-size="14.00">Lab. Sist. Dig.</text>
</g>
<!-- f02_circuitos&#45;&gt;f03_labsd -->
<g id="edge22" class="edge">
<title>f02_circuitos&#45;&gt;f03_labsd</title>
<path fill="none" stroke="#80b1d3" stroke-width="2" d="M262.12,-360C262.12,-360 295.13,-360 295.13,-360"/>
<polygon fill="#80b1d3" stroke="#80b1d3" stroke-width="2" points="296.63,-357.5 296.63,-362.5 295.63,-362.5 295.63,-357.5 296.63,-357.5"/>
<polyline fill="none" stroke="#80b1d3" stroke-width="2" points="297.13,-360 294.63,-360"/>
</g>
<!-- f02_calc1 -->
<g id="node19" class="node">
<title>f02_calc1</title>
<polygon fill="#fdb462" stroke="#fdb462" points="262,-459 161,-459 161,-405 262,-405 262,-459"/>
<text text-anchor="middle" x="211.5" y="-428.3" font-family="Arial" font-size="14.00">Cálculo I</text>
</g>
<!-- f03_prob -->
<g id="node24" class="node">
<title>f03_prob</title>
<polygon fill="#fdb462" stroke="#fdb462" points="399,-444 298,-444 298,-390 399,-390 399,-444"/>
<text text-anchor="middle" x="348.5" y="-420.8" font-family="Arial" font-size="14.00">Probabilidade</text>
<text text-anchor="middle" x="348.5" y="-405.8" font-family="Arial" font-size="14.00">e Estatística</text>
</g>
<!-- f02_calc1&#45;&gt;f03_prob -->
<g id="edge24" class="edge">
<title>f02_calc1&#45;&gt;f03_prob</title>
<path fill="none" stroke="#fdb462" stroke-width="2" d="M262.12,-424.5C262.12,-424.5 295.13,-424.5 295.13,-424.5"/>
<polygon fill="#fdb462" stroke="#fdb462" stroke-width="2" points="296.63,-422 296.63,-427 295.63,-427 295.63,-422 296.63,-422"/>
<polyline fill="none" stroke="#fdb462" stroke-width="2" points="297.13,-424.5 294.63,-424.5"/>
</g>
<!-- f03_calc2 -->
<g id="node25" class="node">
<title>f03_calc2</title>
<polygon fill="#fdb462" stroke="#fdb462" points="399,-516 298,-516 298,-462 399,-462 399,-516"/>
<text text-anchor="middle" x="348.5" y="-485.3" font-family="Arial" font-size="14.00">Cálculo II</text>
</g>
<!-- f02_calc1&#45;&gt;f03_calc2 -->
<g id="edge25" class="edge">
<title>f02_calc1&#45;&gt;f03_calc2</title>
<path fill="none" stroke="#fdb462" stroke-width="2" d="M212,-459.34C212,-466.38 212,-472 212,-472 212,-472 295.17,-472 295.17,-472"/>
<polygon fill="#fdb462" stroke="#fdb462" stroke-width="2" points="296.67,-469.5 296.67,-474.5 295.67,-474.5 295.67,-469.5 296.67,-469.5"/>
<polyline fill="none" stroke="#fdb462" stroke-width="2" points="297.17,-472 294.67,-472"/>
</g>
<!-- f04_bd -->
<g id="node26" class="node">
<title>f04_bd</title>
<polygon fill="#bebada" stroke="#bebada" points="536,-270 435,-270 435,-216 536,-216 536,-270"/>
<text text-anchor="middle" x="485.5" y="-246.8" font-family="Arial" font-size="14.00">Banco de</text>
<text text-anchor="middle" x="485.5" y="-231.8" font-family="Arial" font-size="14.00">Dados</text>
</g>
<!-- f03_edn&#45;&gt;f04_bd -->
<g id="edge27" class="edge">
<title>f03_edn&#45;&gt;f04_bd</title>
<path fill="none" stroke="#fb8072" stroke-width="2" d="M399.31,-179.14C438.48,-179.14 486,-179.14 486,-179.14 486,-179.14 486,-213.05 486,-213.05"/>
<polygon fill="#fb8072" stroke="#fb8072" stroke-width="2" points="488.5,-214.55 483.5,-214.55 483.5,-213.55 488.5,-213.55 488.5,-214.55"/>
<polyline fill="none" stroke="#fb8072" stroke-width="2" points="486,-215.05 486,-212.55"/>
</g>
<!-- f03_edn&#45;&gt;f04_grafos -->
<g id="edge28" class="edge">
<title>f03_edn&#45;&gt;f04_grafos</title>
<path fill="none" stroke="#fb8072" stroke-width="2" d="M399.33,-177.29C413.94,-177.29 426,-177.29 426,-177.29 426,-177.29 426,-438 426,-438 426,-438 432.02,-438 432.02,-438"/>
<polygon fill="#fb8072" stroke="#fb8072" stroke-width="2" points="433.52,-435.5 433.52,-440.5 432.52,-440.5 432.52,-435.5 433.52,-435.5"/>
<polyline fill="none" stroke="#fb8072" stroke-width="2" points="434.02,-438 431.52,-438"/>
</g>
<!-- f05_redes -->
<g id="node35" class="node">
<title>f05_redes</title>
<polygon fill="#bebada" stroke="#bebada" points="673,-150 572,-150 572,-96 673,-96 673,-150"/>
<text text-anchor="middle" x="622.5" y="-119.3" font-family="Arial" font-size="14.00">Redes</text>
</g>
<!-- f03_edn&#45;&gt;f05_redes -->
<g id="edge32" class="edge">
<title>f03_edn&#45;&gt;f05_redes</title>
<path fill="none" stroke="#fb8072" stroke-width="2" d="M399.4,-129.5C399.4,-129.5 569.38,-129.5 569.38,-129.5"/>
<polygon fill="#fb8072" stroke="#fb8072" stroke-width="2" points="570.88,-127 570.88,-132 569.88,-132 569.88,-127 570.88,-127"/>
<polyline fill="none" stroke="#fb8072" stroke-width="2" points="571.38,-129.5 568.88,-129.5"/>
</g>
<!-- f05_so -->
<g id="node36" class="node">
<title>f05_so</title>
<polygon fill="#80b1d3" stroke="#80b1d3" points="673,-366 572,-366 572,-312 673,-312 673,-366"/>
<text text-anchor="middle" x="622.5" y="-342.8" font-family="Arial" font-size="14.00">Sistemas</text>
<text text-anchor="middle" x="622.5" y="-327.8" font-family="Arial" font-size="14.00">Operacionais</text>
</g>
<!-- f03_edn&#45;&gt;f05_so -->
<g id="edge33" class="edge">
<title>f03_edn&#45;&gt;f05_so</title>
<path fill="none" stroke="#fb8072" stroke-width="2" d="M399.35,-171.71C459.04,-171.71 550,-171.71 550,-171.71 550,-171.71 550,-327 550,-327 550,-327 569.25,-327 569.25,-327"/>
<polygon fill="#fb8072" stroke="#fb8072" stroke-width="2" points="570.75,-324.5 570.75,-329.5 569.75,-329.5 569.75,-324.5 570.75,-324.5"/>
<polyline fill="none" stroke="#fb8072" stroke-width="2" points="571.25,-327 568.75,-327"/>
</g>
<!-- f06_cg -->
<g id="node38" class="node">
<title>f06_cg</title>
<polygon fill="#bebada" stroke="#bebada" points="810,-348 709,-348 709,-294 810,-294 810,-348"/>
<text text-anchor="middle" x="759.5" y="-324.8" font-family="Arial" font-size="14.00">Computação</text>
<text text-anchor="middle" x="759.5" y="-309.8" font-family="Arial" font-size="14.00">Gráfica</text>
</g>
<!-- f03_edn&#45;&gt;f06_cg -->
<g id="edge26" class="edge">
<title>f03_edn&#45;&gt;f06_cg</title>
<path fill="none" stroke="#fb8072" stroke-width="2" d="M399.3,-169.86C460.15,-169.86 554,-169.86 554,-169.86 554,-169.86 554,-306 554,-306 554,-306 706.2,-306 706.2,-306"/>
<polygon fill="#fb8072" stroke="#fb8072" stroke-width="2" points="707.7,-303.5 707.7,-308.5 706.7,-308.5 706.7,-303.5 707.7,-303.5"/>
<polyline fill="none" stroke="#fb8072" stroke-width="2" points="708.2,-306 705.7,-306"/>
</g>
<!-- f06_ia -->
<g id="node40" class="node">
<title>f06_ia</title>
<polygon fill="#bebada" stroke="#bebada" points="810,-492 709,-492 709,-438 810,-438 810,-492"/>
<text text-anchor="middle" x="759.5" y="-476.3" font-family="Arial" font-size="14.00">Introdução à</text>
<text text-anchor="middle" x="759.5" y="-461.3" font-family="Arial" font-size="14.00">Inteligência</text>
<text text-anchor="middle" x="759.5" y="-446.3" font-family="Arial" font-size="14.00">Artificial</text>
</g>
<!-- f03_edn&#45;&gt;f06_ia -->
<g id="edge31" class="edge">
<title>f03_edn&#45;&gt;f06_ia</title>
<path fill="none" stroke="#fb8072" stroke-width="2" d="M399.33,-175.43C456.36,-175.43 541,-175.43 541,-175.43 541,-175.43 541,-454 541,-454 541,-454 706.05,-454 706.05,-454"/>
<polygon fill="#fb8072" stroke="#fb8072" stroke-width="2" points="707.55,-451.5 707.55,-456.5 706.55,-456.5 706.55,-451.5 707.55,-451.5"/>
<polyline fill="none" stroke="#fb8072" stroke-width="2" points="708.05,-454 705.55,-454"/>
</g>
<!-- f06_paradig -->
<g id="node42" class="node">
<title>f06_paradig</title>
<polygon fill="#bebada" stroke="#bebada" points="810,-420 709,-420 709,-366 810,-366 810,-420"/>
<text text-anchor="middle" x="759.5" y="-404.3" font-family="Arial" font-size="14.00">Paradigmas</text>
<text text-anchor="middle" x="759.5" y="-389.3" font-family="Arial" font-size="14.00">de</text>
<text text-anchor="middle" x="759.5" y="-374.3" font-family="Arial" font-size="14.00">Programação</text>
</g>
<!-- f03_edn&#45;&gt;f06_paradig -->
<g id="edge29" class="edge">
<title>f03_edn&#45;&gt;f06_paradig</title>
<path fill="none" stroke="#fb8072" stroke-width="2" d="M399.36,-173.57C457.58,-173.57 545,-173.57 545,-173.57 545,-173.57 545,-372.17 545,-372.17 545,-372.17 706.17,-372.17 706.17,-372.17"/>
<polygon fill="#fb8072" stroke="#fb8072" stroke-width="2" points="707.67,-369.67 707.67,-374.67 706.67,-374.67 706.67,-369.67 707.67,-369.67"/>
<polyline fill="none" stroke="#fb8072" stroke-width="2" points="708.17,-372.17 705.67,-372.17"/>
</g>
<!-- f07_compila -->
<g id="node46" class="node">
<title>f07_compila</title>
<polygon fill="#8dd3c7" stroke="#8dd3c7" points="947.5,-376 846.5,-376 846.5,-322 947.5,-322 947.5,-376"/>
<text text-anchor="middle" x="897" y="-345.3" font-family="Arial" font-size="14.00">Compiladores</text>
</g>
<!-- f03_edn&#45;&gt;f07_compila -->
<g id="edge30" class="edge">
<title>f03_edn&#45;&gt;f07_compila</title>
<path fill="none" stroke="#fb8072" stroke-width="2" d="M399.42,-162C492.12,-162 679,-162 679,-162 679,-162 679,-357 679,-357 679,-357 843.66,-357 843.66,-357"/>
<polygon fill="#fb8072" stroke="#fb8072" stroke-width="2" points="845.16,-354.5 845.16,-359.5 844.16,-359.5 844.16,-354.5 845.16,-354.5"/>
<polyline fill="none" stroke="#fb8072" stroke-width="2" points="845.66,-357 843.16,-357"/>
</g>
<!-- f03_poo&#45;&gt;f04_engsoft -->
<g id="edge34" class="edge">
<title>f03_poo&#45;&gt;f04_engsoft</title>
<path fill="none" stroke="#fb8072" stroke-width="2" d="M349,-289.29C349,-294.64 349,-298.25 349,-298.25 349,-298.25 432.17,-298.25 432.17,-298.25"/>
<polygon fill="#fb8072" stroke="#fb8072" stroke-width="2" points="433.67,-295.75 433.67,-300.75 432.67,-300.75 432.67,-295.75 433.67,-295.75"/>
<polyline fill="none" stroke="#fb8072" stroke-width="2" points="434.17,-298.25 431.67,-298.25"/>
</g>
<!-- f04_org -->
<g id="node30" class="node">
<title>f04_org</title>
<polygon fill="#80b1d3" stroke="#80b1d3" points="536,-558 435,-558 435,-504 536,-504 536,-558"/>
<text text-anchor="middle" x="485.5" y="-534.8" font-family="Arial" font-size="14.00">Organização</text>
<text text-anchor="middle" x="485.5" y="-519.8" font-family="Arial" font-size="14.00">de Comp.</text>
</g>
<!-- f03_sistemas&#45;&gt;f04_org -->
<g id="edge35" class="edge">
<title>f03_sistemas&#45;&gt;f04_org</title>
<path fill="none" stroke="#80b1d3" stroke-width="2" d="M399.36,-319C409.45,-319 417,-319 417,-319 417,-319 417,-510 417,-510 417,-510 432.14,-510 432.14,-510"/>
<polygon fill="#80b1d3" stroke="#80b1d3" stroke-width="2" points="433.64,-507.5 433.64,-512.5 432.64,-512.5 432.64,-507.5 433.64,-507.5"/>
<polyline fill="none" stroke="#80b1d3" stroke-width="2" points="434.14,-510 431.64,-510"/>
</g>
<!-- f03_calc2&#45;&gt;f05_numerico -->
<g id="edge36" class="edge">
<title>f03_calc2&#45;&gt;f05_numerico</title>
<path fill="none" stroke="#fdb462" stroke-width="2" d="M399.48,-474C404.62,-474 408,-474 408,-474 408,-474 408,-204.67 408,-204.67 408,-204.67 569.17,-204.67 569.17,-204.67"/>
<polygon fill="#fdb462" stroke="#fdb462" stroke-width="2" points="570.67,-202.17 570.67,-207.17 569.67,-207.17 569.67,-202.17 570.67,-202.17"/>
<polyline fill="none" stroke="#fdb462" stroke-width="2" points="571.17,-204.67 568.67,-204.67"/>
</g>
<!-- f05_apa -->
<g id="node34" class="node">
<title>f05_apa</title>
<polygon fill="#8dd3c7" stroke="#8dd3c7" points="673,-294 572,-294 572,-240 673,-240 673,-294"/>
<text text-anchor="middle" x="622.5" y="-278.3" font-family="Arial" font-size="14.00">Análise e</text>
<text text-anchor="middle" x="622.5" y="-263.3" font-family="Arial" font-size="14.00">Projeto de</text>
<text text-anchor="middle" x="622.5" y="-248.3" font-family="Arial" font-size="14.00">Algoritmos</text>
</g>
<!-- f04_grafos&#45;&gt;f05_apa -->
<g id="edge37" class="edge">
<title>f04_grafos&#45;&gt;f05_apa</title>
<path fill="none" stroke="#8dd3c7" stroke-width="2" d="M536.33,-470C550.94,-470 563,-470 563,-470 563,-470 563,-279 563,-279 563,-279 569.02,-279 569.02,-279"/>
<polygon fill="#8dd3c7" stroke="#8dd3c7" stroke-width="2" points="570.52,-276.5 570.52,-281.5 569.52,-281.5 569.52,-276.5 570.52,-276.5"/>
<polyline fill="none" stroke="#8dd3c7" stroke-width="2" points="571.02,-279 568.52,-279"/>
</g>
<!-- f04_org&#45;&gt;f05_so -->
<g id="edge38" class="edge">
<title>f04_org&#45;&gt;f05_so</title>
<path fill="none" stroke="#80b1d3" stroke-width="2" d="M536.34,-509.33C553.32,-509.33 568,-509.33 568,-509.33 568,-509.33 568,-354.25 568,-354.25 568,-354.25 569.08,-354.25 569.08,-354.25"/>
<polygon fill="#80b1d3" stroke="#80b1d3" stroke-width="2" points="570.58,-351.75 570.58,-356.75 569.58,-356.75 569.58,-351.75 570.58,-351.75"/>
<polyline fill="none" stroke="#80b1d3" stroke-width="2" points="571.08,-354.25 568.58,-354.25"/>
</g>
<!-- f07_paralela -->
<g id="node47" class="node">
<title>f07_paralela</title>
<polygon fill="#80b1d3" stroke="#80b1d3" points="947.5,-448 846.5,-448 846.5,-394 947.5,-394 947.5,-448"/>
<text text-anchor="middle" x="897" y="-424.8" font-family="Arial" font-size="14.00">Computação</text>
<text text-anchor="middle" x="897" y="-409.8" font-family="Arial" font-size="14.00">Paralela</text>
</g>
<!-- f04_org&#45;&gt;f07_paralela -->
<g id="edge39" class="edge">
<title>f04_org&#45;&gt;f07_paralela</title>
<path fill="none" stroke="#80b1d3" stroke-width="2" d="M536.36,-514.67C629.5,-514.67 818,-514.67 818,-514.67 818,-514.67 818,-443 818,-443 818,-443 843.57,-443 843.57,-443"/>
<polygon fill="#80b1d3" stroke="#80b1d3" stroke-width="2" points="845.07,-440.5 845.07,-445.5 844.07,-445.5 844.07,-440.5 845.07,-440.5"/>
<polyline fill="none" stroke="#80b1d3" stroke-width="2" points="845.57,-443 843.07,-443"/>
</g>
<!-- f04_algebra -->
<g id="node31" class="node">
<title>f04_algebra</title>
<polygon fill="#fdb462" stroke="#fdb462" points="536,-414 435,-414 435,-360 536,-360 536,-414"/>
<text text-anchor="middle" x="485.5" y="-390.8" font-family="Arial" font-size="14.00">Álgebra</text>
<text text-anchor="middle" x="485.5" y="-375.8" font-family="Arial" font-size="14.00">Linear</text>
</g>
<!-- f04_algebra&#45;&gt;f05_numerico -->
<g id="edge40" class="edge">
<title>f04_algebra&#45;&gt;f05_numerico</title>
<path fill="none" stroke="#fdb462" stroke-width="2" d="M536.15,-378.33C548.88,-378.33 559,-378.33 559,-378.33 559,-378.33 559,-210.33 559,-210.33 559,-210.33 569.05,-210.33 569.05,-210.33"/>
<polygon fill="#fdb462" stroke="#fdb462" stroke-width="2" points="570.55,-207.83 570.55,-212.83 569.55,-212.83 569.55,-207.83 570.55,-207.83"/>
<polyline fill="none" stroke="#fdb462" stroke-width="2" points="571.05,-210.33 568.55,-210.33"/>
</g>
<!-- f05_sah2 -->
<g id="node32" class="node">
<title>f05_sah2</title>
<polygon fill="#ffffb3" stroke="#ffffb3" points="673,-407.5 572,-407.5 572,-384.5 673,-384.5 673,-407.5"/>
<text text-anchor="middle" x="622.5" y="-392.3" font-family="Arial" font-size="14.00">SAH II</text>
</g>
<!-- f06_tc -->
<g id="node39" class="node">
<title>f06_tc</title>
<polygon fill="#8dd3c7" stroke="#8dd3c7" points="810,-204 709,-204 709,-150 810,-150 810,-204"/>
<text text-anchor="middle" x="759.5" y="-180.8" font-family="Arial" font-size="14.00">Teoria da</text>
<text text-anchor="middle" x="759.5" y="-165.8" font-family="Arial" font-size="14.00">Computação</text>
</g>
<!-- f05_formais&#45;&gt;f06_tc -->
<g id="edge41" class="edge">
<title>f05_formais&#45;&gt;f06_tc</title>
<path fill="none" stroke="#8dd3c7" stroke-width="2" d="M673.43,-66.67C686.52,-66.67 697,-66.67 697,-66.67 697,-66.67 697,-156 697,-156 697,-156 706.26,-156 706.26,-156"/>
<polygon fill="#8dd3c7" stroke="#8dd3c7" stroke-width="2" points="707.76,-153.5 707.76,-158.5 706.76,-158.5 706.76,-153.5 707.76,-153.5"/>
<polyline fill="none" stroke="#8dd3c7" stroke-width="2" points="708.26,-156 705.76,-156"/>
</g>
<!-- f05_formais&#45;&gt;f07_compila -->
<g id="edge42" class="edge">
<title>f05_formais&#45;&gt;f07_compila</title>
<path fill="none" stroke="#8dd3c7" stroke-width="2" d="M673.26,-55.33C737.25,-55.33 839,-55.33 839,-55.33 839,-55.33 839,-335 839,-335 839,-335 843.61,-335 843.61,-335"/>
<polygon fill="#8dd3c7" stroke="#8dd3c7" stroke-width="2" points="845.11,-332.5 845.11,-337.5 844.11,-337.5 844.11,-332.5 845.11,-332.5"/>
<polyline fill="none" stroke="#8dd3c7" stroke-width="2" points="845.61,-335 843.11,-335"/>
</g>
<!-- f06_dist -->
<g id="node41" class="node">
<title>f06_dist</title>
<polygon fill="#80b1d3" stroke="#80b1d3" points="810,-276 709,-276 709,-222 810,-222 810,-276"/>
<text text-anchor="middle" x="759.5" y="-252.8" font-family="Arial" font-size="14.00">Computação</text>
<text text-anchor="middle" x="759.5" y="-237.8" font-family="Arial" font-size="14.00">Distribuída</text>
</g>
<!-- f05_redes&#45;&gt;f06_dist -->
<g id="edge43" class="edge">
<title>f05_redes&#45;&gt;f06_dist</title>
<path fill="none" stroke="#bebada" stroke-width="2" d="M673.36,-144C683.45,-144 691,-144 691,-144 691,-144 691,-231 691,-231 691,-231 706.14,-231 706.14,-231"/>
<polygon fill="#bebada" stroke="#bebada" stroke-width="2" points="707.64,-228.5 707.64,-233.5 706.64,-233.5 706.64,-228.5 707.64,-228.5"/>
<polyline fill="none" stroke="#bebada" stroke-width="2" points="708.14,-231 705.64,-231"/>
</g>
<!-- f05_redes&#45;&gt;f07_paralela -->
<g id="edge44" class="edge">
<title>f05_redes&#45;&gt;f07_paralela</title>
<path fill="none" stroke="#bebada" stroke-width="2" d="M673.48,-138C735.49,-138 832,-138 832,-138 832,-138 832,-407 832,-407 832,-407 843.6,-407 843.6,-407"/>
<polygon fill="#bebada" stroke="#bebada" stroke-width="2" points="845.1,-404.5 845.1,-409.5 844.1,-409.5 844.1,-404.5 845.1,-404.5"/>
<polyline fill="none" stroke="#bebada" stroke-width="2" points="845.6,-407 843.1,-407"/>
</g>
<!-- f05_so&#45;&gt;f06_dist -->
<g id="edge45" class="edge">
<title>f05_so&#45;&gt;f06_dist</title>
<path fill="none" stroke="#80b1d3" stroke-width="2" d="M673.48,-330C689.46,-330 703,-330 703,-330 703,-330 703,-258 703,-258 703,-258 706.12,-258 706.12,-258"/>
<polygon fill="#80b1d3" stroke="#80b1d3" stroke-width="2" points="707.62,-255.5 707.62,-260.5 706.62,-260.5 706.62,-255.5 707.62,-255.5"/>
<polyline fill="none" stroke="#80b1d3" stroke-width="2" points="708.12,-258 705.62,-258"/>
</g>
<!-- f05_numerico&#45;&gt;f06_cg -->
<g id="edge46" class="edge">
<title>f05_numerico&#45;&gt;f06_cg</title>
<path fill="none" stroke="#fdb462" stroke-width="2" d="M673.24,-213C680.19,-213 685,-213 685,-213 685,-213 685,-300 685,-300 685,-300 706.07,-300 706.07,-300"/>
<polygon fill="#fdb462" stroke="#fdb462" stroke-width="2" points="707.57,-297.5 707.57,-302.5 706.57,-302.5 706.57,-297.5 707.57,-297.5"/>
<polyline fill="none" stroke="#fdb462" stroke-width="2" points="708.07,-300 705.57,-300"/>
</g>
<!-- f06_opt61 -->
<g id="node43" class="node">
<title>f06_opt61</title>
<polygon fill="lightgrey" stroke="black" points="810,-132 709,-132 709,-78 810,-78 810,-132"/>
<text text-anchor="middle" x="759.5" y="-101.3" font-family="Arial" font-size="14.00">Optativa 6.1</text>
</g>
<!-- f07_opt71 -->
<g id="node48" class="node">
<title>f07_opt71</title>
<polygon fill="lightgrey" stroke="black" points="947.5,-520 846.5,-520 846.5,-466 947.5,-466 947.5,-520"/>
<text text-anchor="middle" x="897" y="-489.3" font-family="Arial" font-size="14.00">Optativa 7.1</text>
</g>
<!-- f06_opt61&#45;&gt;f07_opt71 -->
<!-- f08_tcc1 -->
<g id="node50" class="node">
<title>f08_tcc1</title>
<polygon fill="#ffffb3" stroke="#ffffb3" points="1085,-637 984,-637 984,-529 1085,-529 1085,-637"/>
<text text-anchor="middle" x="1034.5" y="-594.3" font-family="Arial" font-size="14.00">Trabalho de</text>
<text text-anchor="middle" x="1034.5" y="-579.3" font-family="Arial" font-size="14.00">Conclusão</text>
<text text-anchor="middle" x="1034.5" y="-564.3" font-family="Arial" font-size="14.00">de Curso I</text>
</g>
<!-- f07_ippg&#45;&gt;f08_tcc1 -->
<g id="edge48" class="edge">
<title>f07_ippg&#45;&gt;f08_tcc1</title>
<path fill="none" stroke="#ffffb3" stroke-width="2" d="M948.2,-623.5C948.2,-623.5 981.22,-623.5 981.22,-623.5"/>
<polygon fill="#ffffb3" stroke="#ffffb3" stroke-width="2" points="982.72,-621 982.72,-626 981.72,-626 981.72,-621 982.72,-621"/>
<polyline fill="none" stroke="#ffffb3" stroke-width="2" points="983.22,-623.5 980.72,-623.5"/>
</g>
<!-- f07_iec&#45;&gt;f08_tcc1 -->
<g id="edge49" class="edge">
<title>f07_iec&#45;&gt;f08_tcc1</title>
<path fill="none" stroke="#ffffb3" stroke-width="2" d="M947.81,-565C947.81,-565 981.4,-565 981.4,-565"/>
<polygon fill="#ffffb3" stroke="#ffffb3" stroke-width="2" points="982.9,-562.5 982.9,-567.5 981.9,-567.5 981.9,-562.5 982.9,-562.5"/>
<polyline fill="none" stroke="#ffffb3" stroke-width="2" points="983.4,-565 980.9,-565"/>
</g>
<!-- f07_opt72 -->
<g id="node49" class="node">
<title>f07_opt72</title>
<polygon fill="lightgrey" stroke="black" points="947.5,-304 846.5,-304 846.5,-250 947.5,-250 947.5,-304"/>
<text text-anchor="middle" x="897" y="-273.3" font-family="Arial" font-size="14.00">Optativa 7.2</text>
</g>
<!-- f09_tcc2 -->
<g id="node55" class="node">
<title>f09_tcc2</title>
<polygon fill="#ffffb3" stroke="#ffffb3" points="1222,-646 1121,-646 1121,-520 1222,-520 1222,-646"/>
<text text-anchor="middle" x="1171.5" y="-594.3" font-family="Arial" font-size="14.00">Trabalho de</text>
<text text-anchor="middle" x="1171.5" y="-579.3" font-family="Arial" font-size="14.00">Conclusão</text>
<text text-anchor="middle" x="1171.5" y="-564.3" font-family="Arial" font-size="14.00">de Curso II</text>
</g>
<!-- f08_tcc1&#45;&gt;f09_tcc2 -->
<g id="edge50" class="edge">
<title>f08_tcc1&#45;&gt;f09_tcc2</title>
<path fill="none" stroke="#ffffb3" stroke-width="2" d="M1085.12,-583C1085.12,-583 1118.13,-583 1118.13,-583"/>
<polygon fill="#ffffb3" stroke="#ffffb3" stroke-width="2" points="1119.63,-580.5 1119.63,-585.5 1118.63,-585.5 1118.63,-580.5 1119.63,-580.5"/>
<polyline fill="none" stroke="#ffffb3" stroke-width="2" points="1120.13,-583 1117.63,-583"/>
</g>
<!-- f08_cts -->
<g id="node51" class="node">
<title>f08_cts</title>
<polygon fill="#ffffb3" stroke="#ffffb3" points="1085,-511 984,-511 984,-439 1085,-439 1085,-511"/>
<text text-anchor="middle" x="1034.5" y="-486.3" font-family="Arial" font-size="14.00">Ciência,</text>
<text text-anchor="middle" x="1034.5" y="-471.3" font-family="Arial" font-size="14.00">Tecnologia</text>
<text text-anchor="middle" x="1034.5" y="-456.3" font-family="Arial" font-size="14.00">e Sociedade</text>
</g>
<!-- f08_opt81 -->
<g id="node52" class="node">
<title>f08_opt81</title>
<polygon fill="lightgrey" stroke="black" points="1085,-421 984,-421 984,-367 1085,-367 1085,-421"/>
<text text-anchor="middle" x="1034.5" y="-390.3" font-family="Arial" font-size="14.00">Optativa 8.1</text>
</g>
<!-- f08_opt82 -->
<g id="node53" class="node">
<title>f08_opt82</title>
<polygon fill="lightgrey" stroke="black" points="1085,-349 984,-349 984,-295 1085,-295 1085,-349"/>
<text text-anchor="middle" x="1034.5" y="-318.3" font-family="Arial" font-size="14.00">Optativa 8.2</text>
</g>
<!-- f08_opt83 -->
<g id="node54" class="node">
<title>f08_opt83</title>
<polygon fill="lightgrey" stroke="black" points="1085,-277 984,-277 984,-223 1085,-223 1085,-277"/>
<text text-anchor="middle" x="1034.5" y="-246.3" font-family="Arial" font-size="14.00">Optativa 8.3</text>
</g>
<!-- f09_opt91 -->
<g id="node56" class="node">
<title>f09_opt91</title>
<polygon fill="lightgrey" stroke="black" points="1222,-502 1121,-502 1121,-448 1222,-448 1222,-502"/>
<text text-anchor="middle" x="1171.5" y="-471.3" font-family="Arial" font-size="14.00">Optativa 9.1</text>
</g>
<!-- f09_opt92 -->
<g id="node57" class="node">
<title>f09_opt92</title>
<polygon fill="lightgrey" stroke="black" points="1222,-430 1121,-430 1121,-376 1222,-376 1222,-430"/>
<text text-anchor="middle" x="1171.5" y="-399.3" font-family="Arial" font-size="14.00">Optativa 9.2</text>
</g>
<!-- f09_opt93 -->
<g id="node58" class="node">
<title>f09_opt93</title>
<polygon fill="lightgrey" stroke="black" points="1222,-358 1121,-358 1121,-304 1222,-304 1222,-358"/>
<text text-anchor="middle" x="1171.5" y="-327.3" font-family="Arial" font-size="14.00">Optativa 9.3</text>
</g>
<!-- info -->
<g id="node59" class="node">
<title>info</title>
<polygon fill="none" stroke="none" points="1222,-285.5 1121,-285.5 1121,-116.5 1222,-116.5 1222,-285.5"/>
<image xlink:href="logo-ufsc.svg" width="101px" height="138.976px" preserveAspectRatio="xMinYMin meet" x="1121" y="-285.5"/>
<text text-anchor="middle" x="1171.5" y="-134.9" font-family="Arial" font-size="7.00">UFSC/CTC/INE</text>
<text text-anchor="middle" x="1171.5" y="-126.9" font-family="Arial" font-size="7.00">Ciência da Computação</text>
<text text-anchor="middle" x="1171.5" y="-118.9" font-family="Arial" font-size="7.00">Árvore Curricular 2023&#45;1</text>
</g>
<!-- license -->
<g id="node60" class="node">
<title>license</title>
<polygon fill="none" stroke="none" points="1222,-98 1121,-98 1121,-44 1222,-44 1222,-98"/>
<image xlink:href="by-nc-sa.svg" width="101px" height="35.35px" preserveAspectRatio="xMinYMin meet" x="1121" y="-98"/>
<text text-anchor="middle" x="1171.5" y="-54.4" font-family="mono" font-size="7.00">gustavo.zambonin</text>
<text text-anchor="middle" x="1171.5" y="-46.4" font-family="mono" font-size="7.00">at grad.ufsc.br</text>
</g>
</g>
</svg>
